<?xml version="1.0" standalone="no"?>
<!DOCTYPE svg PUBLIC "-//W3C//DTD SVG 20010904//EN"
 "http://www.w3.org/TR/2001/REC-SVG-20010904/DTD/svg10.dtd">
<svg version="1.0" xmlns="http://www.w3.org/2000/svg"
 width="1240.000000pt" height="1240.000000pt" viewBox="0 0 1240.000000 1240.000000"
 preserveAspectRatio="xMidYMid meet">
<metadata>
Created by potrace 1.11, written by Peter Selinger 2001-2013
</metadata>
<g transform="translate(0.000000,1240.000000) scale(0.100000,-0.100000)"
fill="#000000" stroke="none">
<path d="M9844 9963 c-10 -10 -13 -10 -17 0 -4 8 -8 8 -14 2 -11 -14 -33 -17
-33 -4 0 5 -5 7 -11 4 -5 -4 -27 -9 -47 -11 -42 -5 -77 -12 -77 -14 0 -1 -11
-3 -25 -5 -49 -5 -96 -14 -145 -29 -27 -9 -51 -13 -54 -11 -2 3 -9 1 -15 -4
-6 -5 -35 -14 -63 -21 -32 -7 -50 -16 -46 -23 3 -6 1 -7 -6 -3 -6 4 -18 2 -26
-4 -8 -7 -15 -10 -15 -7 0 3 -13 1 -30 -4 -16 -6 -28 -14 -25 -19 2 -4 -7 -5
-20 -2 -15 2 -25 0 -25 -7 0 -6 -6 -10 -12 -9 -7 2 -12 -2 -11 -8 1 -6 -8 -10
-20 -9 -32 3 -40 -4 -25 -23 11 -15 11 -15 -3 -4 -20 15 -47 7 -72 -22 -10
-12 -16 -16 -13 -9 4 7 -1 9 -14 6 -11 -3 -17 -10 -13 -16 4 -6 0 -8 -10 -4
-13 5 -15 0 -12 -24 2 -16 0 -27 -5 -24 -5 3 -7 12 -3 20 8 23 -24 18 -40 -5
-8 -11 -16 -17 -20 -14 -3 3 -12 1 -19 -5 -23 -20 -89 -61 -97 -61 -4 0 -20
-13 -36 -30 -15 -16 -33 -26 -38 -23 -6 4 -8 0 -4 -11 5 -12 3 -16 -5 -14 -7
3 -24 -6 -38 -19 -14 -13 -31 -23 -38 -23 -7 0 -11 -3 -9 -7 3 -5 -1 -14 -9
-21 -8 -7 -14 -10 -14 -5 0 4 -6 -2 -14 -12 -8 -11 -12 -24 -9 -29 4 -5 1 -6
-4 -3 -14 9 -107 -79 -98 -92 3 -7 3 -11 -2 -10 -18 3 -34 -1 -30 -8 3 -5 -1
-14 -9 -21 -8 -7 -14 -9 -14 -5 0 4 -4 1 -10 -7 -6 -9 -5 -20 3 -30 9 -12 9
-13 -3 -2 -20 18 -30 15 -30 -9 0 -11 -4 -17 -10 -14 -5 3 -10 2 -10 -2 0 -5
-11 -21 -26 -36 -14 -15 -22 -32 -19 -37 4 -6 1 -9 -7 -8 -7 2 -12 -5 -12 -14
1 -10 -4 -14 -12 -11 -8 3 -14 0 -14 -7 0 -6 -7 -18 -15 -27 -13 -12 -13 -18
-3 -31 11 -13 11 -14 0 -8 -20 12 -80 -63 -67 -84 3 -6 0 -8 -7 -5 -8 3 -21
-11 -32 -35 -11 -22 -22 -40 -26 -40 -8 0 -23 -39 -21 -52 1 -5 -3 -8 -7 -8
-5 0 -28 -38 -52 -85 -38 -75 -41 -86 -29 -102 13 -16 12 -17 -3 -5 -10 8 -19
9 -22 3 -3 -5 0 -12 6 -14 8 -3 5 -6 -6 -6 -14 -1 -17 -7 -14 -25 4 -18 1 -23
-10 -18 -10 3 -13 1 -8 -6 3 -6 1 -14 -5 -17 -5 -4 -8 -14 -4 -23 3 -9 3 -13
-1 -9 -7 7 -54 -85 -54 -106 0 -7 -7 -25 -15 -40 -10 -19 -10 -26 -2 -22 7 4
4 0 -6 -8 -10 -9 -18 -18 -17 -21 2 -6 -1 -17 -15 -61 -2 -5 -13 -36 -24 -67
-12 -31 -18 -63 -15 -71 3 -8 -3 -18 -13 -22 -17 -7 -17 -8 2 -15 17 -7 17 -9
3 -9 -17 -1 -22 -11 -19 -38 1 -7 -2 -13 -7 -13 -5 0 -9 -6 -9 -12 -1 -19 -41
-167 -49 -180 -5 -7 -2 -8 7 -3 12 8 12 6 0 -8 -7 -9 -10 -17 -6 -17 4 0 3 -6
-3 -13 -6 -7 -13 -29 -15 -48 -2 -19 -6 -39 -9 -44 -3 -6 -4 -18 -3 -27 2 -10
0 -18 -5 -18 -4 0 -7 -15 -6 -34 1 -19 -2 -32 -6 -30 -4 3 -6 -13 -5 -35 1
-22 0 -38 -4 -35 -4 2 -9 -5 -12 -16 -3 -11 -1 -22 4 -26 5 -3 2 -16 -7 -30
-16 -24 -10 -31 21 -24 5 1 6 -2 2 -7 -5 -4 -14 -8 -20 -8 -13 0 -26 -53 -23
-100 1 -18 -2 -31 -6 -29 -4 2 -7 -13 -8 -33 -1 -59 -3 -73 -10 -73 -3 0 -6
-9 -6 -20 0 -11 4 -20 9 -20 5 0 5 -6 -1 -12 -15 -20 -21 -85 -8 -99 8 -9 8
-10 -1 -5 -14 8 -14 6 -17 -91 0 -29 -3 -53 -6 -53 -9 0 -5 -104 4 -119 6 -9
5 -12 -1 -8 -14 9 -23 -27 -12 -44 4 -7 3 -19 -2 -25 -7 -8 -6 -14 1 -19 6 -3
7 -11 4 -17 -10 -16 -15 -90 -17 -238 -2 -101 1 -127 13 -138 13 -11 13 -11
-1 -7 -13 5 -15 -2 -13 -37 2 -24 3 -65 3 -91 1 -36 4 -46 14 -41 6 4 3 -2 -7
-14 -11 -12 -14 -22 -8 -22 7 0 9 -7 5 -17 -5 -12 -3 -14 7 -8 9 6 11 4 5 -6
-13 -19 -14 -49 -2 -42 6 4 7 1 1 -8 -11 -18 -13 -60 -2 -53 4 3 8 0 8 -5 0
-6 -4 -11 -8 -11 -4 0 -6 -28 -4 -62 1 -35 4 -80 5 -100 0 -20 5 -35 9 -32 4
3 4 -6 -1 -19 -7 -18 -5 -31 6 -47 9 -13 12 -20 6 -17 -6 4 -10 -3 -10 -18 0
-14 4 -22 9 -19 7 4 7 0 0 -12 -11 -24 -4 -86 11 -96 9 -6 8 -8 -1 -8 -7 0
-11 -4 -8 -8 3 -5 6 -29 7 -55 2 -26 7 -47 12 -47 5 0 4 -6 -2 -13 -6 -8 -7
-17 -3 -21 4 -4 8 -22 9 -39 0 -18 4 -52 8 -77 3 -25 9 -67 12 -95 3 -27 10
-56 15 -63 7 -8 7 -12 0 -12 -6 0 -9 -6 -6 -14 3 -8 13 -12 22 -9 13 4 14 3 3
-5 -9 -7 -12 -21 -7 -48 3 -22 9 -57 12 -79 3 -22 12 -52 19 -68 8 -15 9 -25
4 -21 -11 6 -1 -47 10 -56 4 -3 7 -13 8 -22 0 -10 1 -30 2 -44 0 -14 4 -23 9
-21 4 3 8 -9 10 -26 3 -46 7 -60 15 -74 5 -7 6 -13 3 -13 -3 0 -1 -12 5 -27 6
-16 12 -35 14 -44 2 -9 13 -49 26 -90 12 -41 22 -80 22 -86 0 -7 4 -13 9 -13
4 0 8 -13 8 -30 0 -16 5 -30 10 -30 6 0 10 -7 10 -16 0 -9 5 -12 13 -8 9 5 9
4 1 -5 -16 -17 -6 -51 15 -52 9 0 11 -3 4 -5 -9 -4 -9 -11 -1 -29 6 -14 16
-21 22 -18 6 4 5 -1 -3 -10 -9 -12 -10 -17 -2 -17 7 0 10 -4 6 -9 -3 -5 2 -17
11 -25 8 -9 13 -16 10 -16 -3 0 0 -13 5 -30 6 -16 15 -27 20 -24 5 3 6 -2 3
-11 -4 -9 1 -22 12 -31 11 -9 12 -12 4 -8 -12 7 -11 3 3 -19 9 -14 17 -34 17
-43 0 -12 6 -15 23 -11 18 5 19 4 6 -5 -15 -10 -15 -14 0 -42 9 -17 19 -33 22
-36 3 -3 21 -36 40 -74 60 -121 59 -119 77 -105 14 11 15 11 5 -1 -15 -17 -17
-34 -3 -25 6 3 7 -1 4 -9 -3 -9 -1 -16 6 -16 6 0 9 -4 6 -8 -3 -5 5 -19 18
-33 12 -13 25 -32 29 -41 3 -10 11 -18 17 -18 6 0 8 -4 5 -10 -3 -5 -1 -10 5
-10 6 0 9 -4 6 -9 -3 -5 1 -11 9 -15 8 -3 15 -12 15 -21 0 -8 7 -15 15 -15 8
0 15 -6 15 -12 0 -7 10 -25 23 -39 12 -15 40 -47 61 -72 22 -26 44 -43 49 -40
6 3 7 1 3 -5 -8 -13 22 -44 35 -36 5 3 9 2 8 -3 -3 -20 2 -34 11 -28 6 3 10 1
10 -5 0 -21 26 -40 38 -28 8 8 9 4 5 -12 -4 -16 -3 -21 5 -16 7 4 12 1 12 -8
0 -15 13 -21 35 -16 5 1 7 -2 2 -6 -8 -9 31 -54 47 -54 6 0 17 -9 24 -20 7
-11 17 -20 23 -20 5 0 21 -12 34 -26 14 -15 25 -23 25 -18 0 5 4 4 8 -2 10
-15 99 -74 111 -74 6 0 11 -3 11 -7 0 -5 39 -28 88 -53 48 -25 93 -51 100 -58
8 -7 18 -10 23 -7 5 4 9 1 9 -4 0 -6 6 -11 13 -11 7 0 38 -12 68 -26 29 -15
64 -27 76 -28 13 0 23 -4 23 -7 0 -7 59 -23 73 -20 4 0 7 -4 7 -10 0 -6 9 -9
20 -6 11 3 20 1 20 -3 0 -5 8 -7 18 -6 9 2 19 0 22 -4 3 -5 19 -10 35 -13 17
-3 45 -10 63 -16 30 -9 33 -8 28 7 -6 16 -5 16 7 0 8 -10 17 -15 20 -11 4 3 7
2 7 -4 0 -9 21 -13 93 -17 15 0 27 -4 27 -8 0 -3 21 -6 48 -7 41 -1 75 -5 92
-11 15 -6 36 -4 48 4 7 5 12 5 12 -1 0 -10 5 -11 55 -13 35 -1 55 3 73 13 7 5
12 3 12 -5 0 -9 3 -9 10 2 8 12 10 12 10 1 0 -9 4 -10 13 -3 6 5 30 10 52 10
63 0 67 1 59 15 -5 9 -4 9 6 0 15 -14 71 -6 82 11 5 7 8 6 8 -3 0 -11 3 -12
11 -4 6 6 18 9 27 6 8 -4 13 -2 10 3 -4 5 8 10 25 10 18 1 46 4 62 7 17 3 34
6 38 6 5 1 5 5 2 11 -3 6 1 7 9 4 10 -4 16 -1 16 7 0 11 3 11 10 -1 5 -8 10
-10 10 -5 0 6 11 11 25 11 46 3 76 14 69 26 -4 7 -3 8 5 4 14 -9 91 16 181 57
36 17 71 30 78 30 6 0 12 4 12 9 0 5 5 6 10 3 6 -3 10 -1 10 5 0 6 4 9 9 6 5
-3 11 0 14 8 3 8 20 17 37 21 19 4 30 12 27 19 -4 9 3 12 19 10 13 -1 24 1 24
5 0 4 23 20 50 36 28 16 50 33 50 37 0 4 5 8 11 8 6 0 22 9 36 20 14 11 30 17
36 13 5 -3 7 -1 3 5 -3 6 10 21 32 34 23 14 37 29 34 37 -3 8 0 11 6 7 6 -4
20 1 30 11 10 10 40 38 65 61 26 24 44 49 40 54 -3 7 -1 8 5 4 14 -8 55 31 47
45 -4 5 -3 9 2 8 21 -4 31 3 36 22 3 12 10 18 16 14 10 -5 15 7 12 27 0 4 5 5
12 3 6 -3 18 8 25 25 8 17 18 28 22 25 5 -3 11 3 14 12 3 10 19 32 35 49 17
18 27 34 24 38 -3 3 2 8 11 12 9 3 16 12 16 19 0 7 7 16 16 19 8 3 12 10 9 16
-3 5 -1 10 5 10 6 0 8 5 5 10 -3 6 -2 10 3 10 4 0 19 14 31 31 13 18 17 29 10
25 -8 -4 -5 0 6 9 11 9 19 23 17 32 -2 8 1 12 6 9 12 -7 24 22 15 36 -3 6 -2
8 4 5 12 -7 57 69 48 82 -3 5 0 13 6 17 8 5 9 3 4 -6 -6 -9 -4 -11 4 -5 7 4
11 15 8 25 -4 14 -1 17 12 13 13 -5 12 -2 -4 18 -14 16 -15 20 -3 11 15 -12
20 -6 48 52 18 37 28 71 24 78 -4 7 -4 10 1 6 10 -9 48 60 40 73 -4 5 -11 6
-17 3 -7 -4 -8 -2 -4 4 4 6 12 9 20 6 10 -4 30 31 44 76 1 3 17 44 36 92 19
50 29 88 23 88 -6 0 -2 7 9 15 10 8 15 15 10 15 -5 0 -3 7 4 15 10 12 10 15
-1 15 -10 0 -11 2 -2 8 15 10 45 94 29 85 -6 -3 -3 2 6 13 9 10 17 24 17 29 1
6 8 34 17 64 8 29 13 60 10 67 -3 8 -2 14 2 14 4 0 12 16 18 35 8 24 8 32 0
28 -7 -4 -7 -2 1 8 15 19 19 51 10 67 -5 7 -5 12 0 11 20 -4 24 2 12 18 -10
11 -10 14 -1 9 7 -4 12 -2 12 6 0 8 -6 20 -12 27 -11 10 -9 11 6 5 15 -6 18
-4 13 9 -3 9 -1 19 5 23 7 4 6 9 -3 15 -12 7 -12 9 0 9 9 0 12 8 9 25 -3 13
-1 22 3 19 10 -6 10 -5 14 51 2 22 4 40 5 40 1 0 4 11 5 25 6 41 11 59 18 66
3 4 2 15 -4 25 -5 11 -6 19 -1 19 5 0 9 6 9 13 1 15 10 84 20 152 11 72 10 78
-1 94 -8 11 -8 13 2 7 8 -5 12 -1 13 11 3 46 6 71 13 81 3 6 2 13 -4 17 -7 4
-7 12 0 25 7 13 7 21 0 25 -5 3 -10 12 -10 18 0 7 4 6 10 -3 7 -11 10 -5 11
25 0 22 2 50 3 63 2 12 -2 22 -8 22 -6 0 -5 4 2 9 19 11 19 15 3 35 -12 14
-12 16 0 11 10 -4 14 3 14 20 0 14 -4 25 -9 25 -5 0 -2 8 5 17 12 14 12 16 0
8 -10 -6 -12 -4 -6 5 17 27 26 350 10 350 -7 0 -7 3 0 8 11 8 12 142 1 160 -4
7 -4 12 1 12 11 0 4 152 -8 166 -5 6 -4 15 3 22 9 9 9 12 0 12 -10 0 -10 5 -2
20 8 15 8 20 -2 20 -9 0 -9 3 0 12 7 7 8 17 1 30 -5 10 -6 18 -1 18 11 0 3
100 -9 115 -4 6 -4 17 0 24 10 16 2 92 -11 109 -7 8 -7 12 2 12 9 0 9 4 -1 17
-10 11 -10 14 -1 9 6 -4 12 -2 12 3 0 6 -5 11 -11 11 -8 0 -8 5 1 15 7 8 9 15
4 15 -5 0 -9 12 -10 28 0 15 -3 61 -8 102 -4 41 -9 95 -11 119 -3 24 -9 49
-15 56 -8 9 -8 15 0 20 6 3 7 12 3 18 -4 6 -8 20 -9 32 -7 65 -13 103 -18 125
-3 14 -8 40 -11 58 -9 54 -16 96 -22 122 -2 14 -8 43 -13 65 -18 89 -22 100
-33 107 -9 6 -9 8 0 8 7 0 10 7 7 15 -4 8 -11 12 -18 8 -7 -5 -7 -2 1 8 10 12
9 21 -2 42 -8 15 -10 25 -4 21 7 -4 7 0 0 12 -11 23 -36 116 -33 127 1 4 -2 7
-6 7 -4 0 -9 12 -10 26 -1 15 -6 32 -11 38 -5 6 -7 19 -6 29 2 9 -2 17 -8 17
-5 0 -8 3 -4 6 3 4 0 19 -9 35 -8 16 -12 29 -8 29 4 0 1 7 -6 15 -7 9 -10 18
-6 22 3 3 -1 15 -11 25 -9 10 -12 18 -8 18 5 0 0 7 -11 16 -10 8 -13 12 -6 9
11 -6 12 -3 3 14 -7 11 -9 21 -6 21 3 0 0 10 -7 23 -12 22 -14 28 -17 48 0 5
-6 7 -13 3 -6 -4 -8 -3 -4 4 7 11 -22 92 -33 92 -4 0 -8 12 -9 27 -1 14 -9 35
-19 45 -9 10 -12 18 -8 18 4 0 1 8 -8 18 -8 9 -19 29 -22 45 -4 15 -11 27 -16
27 -5 0 -9 7 -9 16 0 8 -4 13 -9 9 -6 -3 -8 4 -6 15 2 11 -1 20 -6 20 -6 0 -7
5 -4 10 3 6 1 10 -4 10 -6 0 -11 7 -11 16 0 8 -4 12 -10 9 -5 -3 -10 3 -10 14
0 12 -5 21 -11 21 -5 0 -8 4 -5 9 3 5 -1 14 -9 21 -8 7 -15 18 -15 24 0 6 -12
27 -28 46 -15 19 -34 47 -41 63 -8 15 -18 27 -23 27 -4 0 -8 7 -8 15 0 8 -6
15 -14 15 -8 0 -18 5 -22 12 -4 7 -3 8 4 4 7 -4 12 -3 12 3 0 5 -8 15 -17 20
-10 6 -14 11 -10 11 4 0 -3 11 -15 24 -13 13 -27 21 -33 18 -5 -3 -7 -2 -3 3
11 12 -12 47 -27 41 -9 -3 -12 0 -9 8 3 7 -19 39 -49 70 -29 31 -51 59 -48 61
2 3 -3 5 -13 5 -9 0 -14 5 -11 10 3 6 -1 10 -10 10 -9 0 -13 5 -10 10 3 6 1
10 -5 10 -6 0 -23 14 -37 30 -13 17 -31 30 -39 30 -9 0 -12 5 -9 10 3 6 2 10
-2 10 -5 0 -19 10 -33 23 -14 13 -45 38 -69 55 -24 18 -40 32 -35 32 5 1 -4 7
-21 15 -37 18 -63 35 -89 58 -11 9 -26 17 -33 17 -7 0 -13 3 -13 8 0 4 -14 13
-32 21 -17 8 -39 22 -50 33 -10 10 -18 13 -18 8 0 -6 -10 -2 -22 9 -11 11 -25
18 -30 15 -4 -3 -8 0 -8 5 0 6 -3 10 -7 9 -11 -2 -47 14 -54 24 -3 4 -17 9
-32 10 -15 1 -27 6 -27 10 0 4 -9 8 -20 8 -11 0 -20 5 -20 12 0 6 -3 8 -7 5
-3 -4 -12 -2 -20 4 -7 6 -13 8 -13 4 0 -4 -6 -2 -13 4 -8 6 -23 12 -35 14 -12
2 -25 6 -28 10 -4 4 -16 7 -26 7 -10 0 -18 5 -18 12 0 9 -3 9 -11 1 -8 -8 -19
-6 -41 4 -16 8 -40 16 -54 17 -13 0 -24 4 -24 7 0 3 -10 5 -22 4 -13 -1 -35 4
-49 11 -20 10 -29 10 -39 1 -10 -9 -11 -9 -5 1 5 10 2 13 -11 11 -11 -2 -29 1
-41 5 -12 4 -40 8 -63 10 -22 2 -43 6 -47 10 -3 3 -12 1 -20 -5 -7 -6 -13 -7
-13 -2 0 5 -21 10 -47 12 -26 1 -49 4 -52 7 -2 2 -14 -4 -25 -13 -20 -17 -20
-17 -7 0 15 20 9 22 -21 6 -11 -6 -18 -7 -15 -2 9 14 -85 10 -99 -4z m23 -18
c0 -8 -4 -12 -9 -9 -5 3 -6 10 -3 15 9 13 12 11 12 -6z m83 1 c0 -3 -4 -8 -10
-11 -5 -3 -10 -1 -10 4 0 6 5 11 10 11 6 0 10 -2 10 -4z m120 -6 c0 -5 -2 -10
-4 -10 -3 0 -8 5 -11 10 -3 6 -1 10 4 10 6 0 11 -4 11 -10z m-440 -40 c0 -5
-5 -10 -11 -10 -5 0 -7 5 -4 10 3 6 8 10 11 10 2 0 4 -4 4 -10z m520 0 c0 -5
-5 -10 -11 -10 -5 0 -7 5 -4 10 3 6 8 10 11 10 2 0 4 -4 4 -10z m80 6 c0 -3
-4 -8 -10 -11 -5 -3 -10 -1 -10 4 0 6 5 11 10 11 6 0 10 -2 10 -4z m-740 -20
c0 -2 -7 -7 -16 -10 -8 -3 -12 -2 -9 4 6 10 25 14 25 6z m880 -6 c0 -5 -5 -10
-11 -10 -5 0 -7 5 -4 10 3 6 8 10 11 10 2 0 4 -4 4 -10z m45 0 c3 -6 -1 -7 -9
-4 -18 7 -21 14 -7 14 6 0 13 -4 16 -10z m-985 -20 c0 -5 -5 -10 -11 -10 -5 0
-7 5 -4 10 3 6 8 10 11 10 2 0 4 -4 4 -10z m120 0 c0 -5 -5 -10 -11 -10 -5 0
-7 5 -4 10 3 6 8 10 11 10 2 0 4 -4 4 -10z m914 2 c2 -4 -5 -9 -17 -9 -17 -2
-19 0 -7 7 18 12 18 12 24 2z m-1144 -78 c0 -8 -19 -13 -24 -6 -3 5 1 9 9 9 8
0 15 -2 15 -3z m-150 -22 c0 -5 -7 -9 -15 -9 -8 0 -12 4 -9 9 3 4 9 8 15 8 5
0 9 -4 9 -8z m1616 -18 c1 -9 0 -13 -4 -10 -3 4 -7 14 -8 22 -1 9 0 13 4 10 3
-4 7 -14 8 -22z m-32 -2 c3 -5 -1 -9 -9 -9 -8 0 -12 4 -9 9 3 4 7 8 9 8 2 0 6
-4 9 -8z m-1648 -27 c-1 -8 -5 -17 -8 -21 -5 -4 -4 16 1 34 3 9 9 -1 7 -13z
m-51 -34 c-9 -8 -36 -10 -30 -2 2 4 11 8 20 8 8 0 13 -3 10 -6z m-68 -26 c0
-8 -4 -12 -9 -9 -5 3 -6 10 -3 15 9 13 12 11 12 -6z m903 10 c0 -7 -30 -13
-34 -7 -3 4 4 9 15 9 10 1 19 0 19 -2z m1060 -5 c0 -5 -5 -10 -11 -10 -5 0 -7
5 -4 10 3 6 8 10 11 10 2 0 4 -4 4 -10z m-844 -25 c-1 -8 -5 -17 -8 -21 -5 -4
-4 16 1 34 3 9 9 -1 7 -13z m41 -4 c0 -11 -5 -18 -9 -15 -4 3 -5 11 -1 19 7
21 12 19 10 -4z m-542 -10 c-9 -8 -36 -10 -30 -2 2 4 11 8 20 8 8 0 13 -3 10
-6z m385 -1 c0 -5 -2 -10 -4 -10 -3 0 -8 5 -11 10 -3 6 -1 10 4 10 6 0 11 -4
11 -10z m296 -2 c3 -4 -1 -5 -10 -4 -8 1 -18 5 -22 8 -3 4 1 5 10 4 8 -1 18
-5 22 -8z m704 6 c0 -8 -19 -13 -24 -6 -3 5 1 9 9 9 8 0 15 -2 15 -3z m40 -4
c0 -5 -2 -10 -4 -10 -3 0 -8 5 -11 10 -3 6 -1 10 4 10 6 0 11 -4 11 -10z
m-1340 -4 c0 -2 -8 -10 -17 -17 -16 -13 -17 -12 -4 4 13 16 21 21 21 13z
m-165 -16 c3 -5 1 -10 -4 -10 -6 0 -11 5 -11 10 0 6 2 10 4 10 3 0 8 -4 11
-10z m450 -6 c6 0 18 4 29 9 13 6 16 6 12 -2 -10 -15 27 -14 43 2 10 10 12 9
9 -2 -2 -11 8 -14 40 -15 23 0 42 -4 42 -8 0 -5 10 -4 21 3 17 9 20 8 14 -2
-6 -9 -3 -11 8 -6 10 4 17 1 18 -6 0 -9 2 -9 6 0 3 9 10 10 22 3 10 -5 21 -6
25 -3 3 3 6 1 6 -7 0 -10 4 -10 17 1 11 10 14 10 9 2 -5 -9 0 -13 16 -15 29
-1 39 -3 61 -11 38 -15 48 -16 42 -8 -3 5 -1 13 5 16 6 4 10 3 9 -2 -5 -27 1
-35 17 -23 12 11 15 11 12 0 -2 -8 3 -15 10 -16 6 -1 15 -3 20 -4 4 -1 10 -2
15 -1 4 0 7 -4 7 -11 0 -6 3 -9 6 -6 3 4 21 0 40 -8 19 -8 39 -12 45 -9 5 4 8
1 7 -7 -2 -7 3 -12 10 -10 6 1 12 -2 12 -7 0 -5 15 -14 33 -22 17 -7 44 -21
59 -31 27 -19 53 -24 44 -10 -3 5 1 9 9 9 10 0 12 -4 5 -12 -13 -16 23 -50 44
-42 10 4 13 1 9 -9 -3 -7 0 -14 6 -14 12 0 35 -18 94 -72 22 -21 44 -35 49
-32 4 3 7 0 6 -8 -2 -7 3 -12 10 -10 8 1 11 -2 8 -7 -8 -12 44 -62 56 -55 5 3
7 2 6 -3 -4 -13 34 -63 43 -57 5 3 8 2 7 -3 -4 -12 21 -53 33 -53 6 0 7 5 3
12 -4 7 -3 8 5 4 9 -6 9 -11 0 -22 -6 -8 -8 -14 -3 -14 5 0 22 -20 37 -45 16
-25 33 -43 37 -40 4 3 6 -4 3 -15 -4 -14 0 -20 11 -20 10 0 13 -5 9 -17 -5
-12 -2 -15 10 -10 9 3 19 1 23 -5 4 -7 3 -8 -4 -4 -7 4 -12 1 -12 -8 0 -9 4
-16 9 -16 8 0 17 -21 19 -44 0 -5 4 -12 10 -15 17 -12 123 -247 114 -255 -3
-3 0 -6 6 -6 7 0 11 -3 11 -7 -1 -5 0 -11 1 -15 1 -5 4 -12 5 -18 1 -5 4 -12
5 -15 3 -6 5 -12 15 -42 4 -13 11 -21 14 -18 4 2 8 -2 8 -10 0 -8 -4 -12 -9
-9 -16 10 -8 -5 15 -27 12 -12 16 -18 8 -14 -11 6 -13 4 -7 -11 4 -10 10 -30
12 -44 3 -14 12 -35 20 -47 10 -16 11 -23 3 -23 -8 0 -9 -4 0 -13 6 -8 8 -17
4 -20 -3 -4 -1 -7 5 -7 6 0 9 -9 7 -20 -2 -11 0 -22 5 -25 5 -3 7 -12 3 -20
-3 -8 -1 -15 4 -15 5 0 10 -16 11 -37 2 -20 5 -40 8 -45 6 -10 16 -56 17 -78
0 -8 7 -21 16 -28 9 -8 11 -11 4 -8 -13 7 -7 -55 8 -85 5 -9 3 -21 -3 -27 -9
-9 -9 -12 0 -12 7 0 12 -13 12 -29 0 -17 5 -33 10 -36 7 -4 7 -12 0 -24 -5
-10 -7 -21 -4 -24 7 -7 12 -35 13 -75 1 -24 5 -31 14 -26 9 6 9 4 1 -7 -6 -8
-9 -23 -7 -34 5 -19 8 -46 15 -132 2 -22 6 -39 11 -36 4 2 7 -1 7 -6 0 -6 -5
-11 -11 -11 -5 0 -8 -4 -5 -9 5 -8 19 -162 20 -228 1 -11 6 -18 11 -15 6 3 4
-2 -4 -11 -8 -11 -9 -17 -2 -17 7 0 8 -8 1 -24 -5 -13 -7 -26 -5 -28 2 -2 7
-39 9 -82 3 -42 9 -82 12 -88 4 -6 3 -8 -3 -5 -5 3 -8 -15 -7 -46 2 -29 3 -85
3 -125 1 -56 4 -71 14 -66 10 6 10 4 0 -7 -7 -7 -13 -30 -13 -52 0 -28 3 -36
13 -31 8 5 8 2 -2 -9 -11 -14 -11 -17 0 -17 11 0 11 -2 -1 -10 -11 -7 -11 -10
-2 -10 8 0 10 -5 6 -12 -12 -20 -12 -88 0 -81 6 4 5 -1 -3 -10 -11 -14 -11
-17 0 -18 11 0 11 -2 1 -6 -10 -4 -10 -8 -1 -19 6 -8 7 -14 2 -14 -5 0 -9 -9
-9 -20 0 -11 4 -20 9 -20 5 0 4 -6 -2 -14 -8 -10 -9 -16 -1 -21 6 -3 7 -11 4
-17 -11 -18 -12 -88 -1 -88 5 0 3 -8 -4 -17 -12 -15 -12 -16 1 -8 12 7 13 6 4
-6 -12 -17 -12 -188 0 -208 6 -10 5 -12 -2 -7 -7 4 -12 2 -12 -3 0 -6 6 -11
13 -12 9 0 9 -2 -1 -6 -10 -4 -10 -8 -1 -19 6 -8 7 -14 2 -14 -5 0 -9 -9 -9
-20 0 -11 4 -20 9 -20 4 0 5 -6 0 -12 -12 -20 -12 -38 0 -38 8 0 7 -4 -1 -12
-9 -9 -9 -15 1 -27 9 -12 9 -13 0 -7 -10 5 -13 -8 -14 -56 0 -35 -1 -85 -2
-111 0 -31 5 -52 14 -59 12 -8 11 -9 -2 -5 -12 4 -16 -3 -17 -35 -1 -22 -5
-45 -9 -50 -4 -7 -1 -8 7 -3 9 5 11 4 6 -3 -7 -12 -14 -73 -20 -173 -2 -31 -6
-62 -10 -68 -4 -6 -2 -11 5 -11 8 0 8 -4 -1 -15 -10 -12 -10 -15 1 -15 10 0
10 -3 1 -12 -16 -16 -15 -55 1 -61 7 -3 5 -6 -5 -6 -10 -1 -18 -5 -18 -11 0
-5 8 -14 18 -20 14 -10 14 -11 1 -6 -13 3 -18 -3 -22 -27 -2 -18 -1 -33 4 -35
5 -2 4 -13 -3 -25 -12 -22 -15 -42 -20 -129 -2 -27 -6 -48 -11 -48 -4 0 -5
-11 -3 -25 3 -13 1 -27 -3 -29 -4 -3 -8 -21 -9 -41 -1 -19 -6 -44 -12 -55 -8
-15 -8 -20 2 -20 9 0 9 -3 2 -8 -18 -12 -33 -89 -20 -103 8 -9 8 -10 -1 -5 -9
5 -13 -1 -13 -18 0 -14 -4 -26 -9 -26 -5 0 -8 -8 -6 -17 1 -10 -2 -24 -8 -30
-5 -7 -7 -13 -4 -13 3 0 -1 -20 -9 -45 -7 -25 -11 -45 -8 -45 3 0 -1 -10 -8
-22 -6 -13 -12 -33 -12 -46 -1 -12 -6 -26 -11 -30 -6 -4 -10 -19 -10 -34 1
-15 -1 -25 -4 -23 -4 5 -27 -51 -34 -80 -1 -5 -6 -13 -12 -17 -6 -5 -5 -8 3
-8 10 0 9 -4 -3 -16 -9 -9 -14 -22 -11 -29 3 -8 -2 -16 -10 -19 -8 -3 -13 -9
-12 -13 0 -4 -4 -21 -10 -36 -7 -16 -9 -33 -6 -39 4 -6 2 -8 -4 -4 -10 6 -28
-30 -24 -46 1 -5 -2 -8 -8 -8 -9 0 -53 -85 -54 -105 -1 -5 -9 -18 -19 -28 -11
-11 -17 -27 -14 -38 3 -11 1 -16 -5 -13 -11 7 -39 -27 -32 -38 3 -5 0 -8 -6
-8 -7 0 -9 -7 -6 -16 3 -8 2 -12 -4 -9 -5 3 -17 -7 -27 -22 -10 -15 -22 -33
-28 -39 -5 -7 -21 -26 -35 -44 -14 -17 -33 -41 -42 -52 -10 -12 -18 -25 -18
-30 0 -5 -5 -6 -11 -3 -6 4 -9 0 -7 -11 2 -13 -2 -18 -14 -16 -21 3 -23 -8 -5
-28 10 -12 9 -12 -3 -3 -10 8 -21 9 -30 3 -8 -6 -11 -10 -7 -10 4 0 2 -6 -5
-14 -7 -8 -16 -12 -19 -10 -4 2 -10 -3 -13 -12 -3 -8 -10 -13 -15 -9 -5 3 -13
-4 -16 -16 -4 -11 -9 -18 -12 -16 -7 7 -41 -26 -36 -35 2 -4 -3 -5 -11 -2 -9
3 -16 1 -16 -5 0 -6 -9 -11 -21 -11 -11 0 -18 -4 -14 -9 3 -6 -12 -18 -32 -27
-21 -10 -40 -21 -43 -24 -3 -4 -13 -9 -23 -13 -11 -4 -15 -12 -11 -18 4 -7 3
-9 -3 -6 -5 3 -38 -8 -73 -24 -34 -17 -68 -32 -74 -33 -29 -5 -56 -18 -56 -27
0 -5 -3 -8 -7 -7 -13 4 -162 -35 -158 -41 2 -3 -9 -7 -23 -8 -28 -1 -92 -10
-127 -17 -11 -3 -33 -5 -49 -5 -22 -1 -27 -5 -22 -18 5 -16 5 -16 -6 -3 -9 11
-23 14 -48 10 -19 -3 -54 -5 -77 -5 -24 0 -43 -4 -43 -10 0 -7 -3 -7 -8 0 -11
15 -32 17 -32 3 0 -10 -2 -10 -8 -1 -4 6 -34 14 -67 17 -33 2 -60 5 -60 6 0 3
-40 9 -73 12 -18 1 -36 6 -39 11 -2 4 -12 2 -21 -5 -9 -7 -13 -8 -9 -2 4 7 -4
14 -21 17 -15 3 -44 10 -64 15 -25 7 -40 6 -49 -2 -9 -8 -10 -8 -4 3 10 18
-15 33 -32 19 -10 -8 -13 -7 -13 4 0 8 -6 15 -12 15 -23 1 -42 8 -55 20 -7 6
-24 10 -38 9 -13 -2 -22 0 -20 4 7 11 -24 22 -37 13 -6 -3 -8 -2 -5 4 4 6 -18
22 -48 38 -30 15 -64 36 -77 46 -12 11 -28 17 -35 14 -8 -2 -11 0 -8 5 3 5 -5
15 -19 22 -14 6 -26 15 -26 20 0 4 -7 8 -16 8 -8 0 -12 5 -9 10 3 6 0 10 -7
10 -7 0 -35 21 -61 45 -26 25 -52 43 -58 40 -5 -4 -9 -3 -8 2 4 22 -2 35 -15
30 -9 -4 -13 -1 -11 6 3 7 -12 30 -33 52 -21 22 -47 52 -56 67 -10 15 -22 25
-27 22 -5 -3 -8 -2 -7 3 4 17 -14 53 -27 53 -8 0 -17 5 -21 12 -5 7 -3 8 5 3
8 -4 6 3 -4 18 -9 14 -23 28 -30 31 -8 3 -12 11 -9 19 3 8 -2 20 -11 27 -8 7
-15 16 -15 21 0 4 -13 31 -30 59 -16 28 -30 57 -30 65 0 8 -4 15 -9 15 -5 0
-11 8 -14 18 -5 14 -28 72 -79 192 -6 14 -12 32 -14 40 -2 8 -8 16 -14 18 -5
2 -8 8 -4 13 3 5 2 15 -3 22 -4 6 -8 17 -8 22 -1 6 -4 17 -7 25 -3 8 -11 35
-18 60 -7 25 -14 51 -16 58 -2 7 -9 10 -16 6 -10 -5 -10 -4 -2 5 15 17 5 64
-12 57 -7 -3 -16 -1 -19 5 -4 5 -1 8 6 7 12 -3 14 8 10 43 0 5 -7 7 -13 3 -10
-5 -10 -4 -2 5 9 9 8 23 -1 54 -7 23 -13 45 -13 50 -1 4 -4 22 -7 40 -3 17 -8
41 -9 52 -2 11 -9 19 -17 17 -10 -3 -10 0 1 13 11 13 10 19 -6 37 -11 12 -13
18 -6 14 7 -4 12 -1 12 8 0 9 -3 16 -7 16 -5 0 -9 19 -10 43 -1 41 -11 142
-13 142 -4 0 -12 56 -13 92 -1 24 -4 43 -7 43 -3 0 -7 21 -7 48 -3 74 -8 116
-16 129 -4 6 -3 14 3 18 6 4 7 12 3 18 -7 11 -8 30 -12 130 -1 19 -5 26 -13
21 -10 -5 -10 -4 -1 6 9 9 9 19 2 33 -8 14 -8 18 0 13 6 -4 11 -2 11 3 0 6 -6
11 -12 11 -8 0 -9 3 -3 8 13 9 18 32 7 32 -10 0 -9 30 2 48 4 6 3 12 -1 12 -5
0 -9 71 -10 158 -2 272 -8 400 -17 394 -5 -3 -6 1 -1 8 13 21 16 202 3 194 -7
-5 -8 -2 -3 6 11 18 12 70 2 70 -5 0 -5 5 -1 11 3 6 8 119 11 252 2 133 5 258
6 277 1 19 -2 38 -8 42 -7 5 -7 8 0 8 6 0 10 23 10 50 0 28 2 50 5 50 3 0 5
16 5 35 0 19 -4 35 -8 35 -4 0 -3 8 2 18 7 13 6 23 -2 32 -9 10 -9 11 1 6 8
-5 12 3 13 31 0 21 2 48 3 61 2 12 -2 22 -8 22 -6 0 -4 5 4 10 8 5 12 10 8 10
-4 0 -3 14 2 30 6 20 5 30 -2 30 -7 0 -7 4 -1 13 6 6 9 20 8 29 -2 10 0 20 3
22 4 2 7 29 7 60 0 31 3 56 6 56 3 0 5 18 5 40 -1 22 2 40 7 40 5 0 6 7 3 16
-3 9 -3 20 0 26 4 6 8 35 11 64 2 30 8 66 13 79 7 18 6 25 -2 25 -7 0 -6 6 4
18 8 9 14 32 14 50 -1 17 3 32 7 32 5 0 5 5 2 10 -4 6 -10 8 -15 5 -5 -3 -11
-1 -15 4 -3 6 3 8 13 6 13 -2 21 6 28 31 7 21 7 34 1 34 -6 0 -6 5 1 13 5 6
12 26 15 42 3 17 10 45 16 63 5 17 7 32 4 32 -3 0 -1 6 4 13 6 6 14 30 18 52
5 22 9 42 10 45 0 3 6 15 13 28 10 18 10 22 0 23 -10 0 -10 2 0 6 6 2 12 13
12 23 0 10 5 22 11 25 6 4 8 13 5 20 -3 8 -1 15 4 17 5 2 11 12 13 23 2 11 9
34 16 50 6 17 19 50 28 75 9 25 25 60 35 78 10 17 15 32 13 32 -3 0 6 18 20
40 14 22 22 40 19 40 -4 0 -1 7 6 15 10 12 10 18 -1 33 -13 15 -12 16 3 4 10
-8 19 -9 22 -3 3 5 0 12 -6 14 -8 3 -5 6 6 6 12 1 16 6 12 16 -3 9 0 15 10 15
8 0 13 4 10 9 -3 5 1 14 9 21 8 7 15 19 15 26 0 8 5 14 10 14 6 0 10 7 10 15
0 8 5 15 11 15 6 0 9 9 6 19 -3 15 -1 18 11 14 10 -4 13 -2 8 5 -3 6 0 14 8
19 7 4 34 35 59 68 32 42 42 62 34 68 -8 6 -6 7 5 3 11 -3 24 4 36 19 11 13
21 22 24 20 3 -3 11 6 18 20 7 14 17 25 21 25 5 0 25 18 45 40 21 22 39 38 41
36 10 -10 53 39 48 54 -5 11 -3 12 6 3 12 -12 15 -10 54 25 7 7 22 16 32 20
10 4 46 22 81 40 56 29 62 35 50 49 -12 15 -11 15 8 3 17 -10 27 -9 64 9 24
11 50 21 57 21 8 0 12 4 9 9 -3 4 4 8 17 7 14 -1 22 5 22 16 0 9 4 19 8 22 4
3 5 3 2 -1 -10 -13 17 -32 33 -23 10 4 37 14 62 20 25 7 48 17 52 24 6 8 8 7
8 -2 0 -8 5 -10 13 -5 6 4 21 8 32 9 54 3 95 16 88 27 -5 9 -3 9 8 1 8 -7 32
-10 54 -8 77 8 118 14 123 19 3 2 10 1 16 -3 6 -4 16 -7 21 -8z m1130 -13 c3
-5 2 -12 -3 -15 -5 -3 -9 1 -9 9 0 17 3 19 12 6z m-2282 -36 c-7 -21 -12 -19
-10 4 0 11 5 18 9 15 4 -3 5 -11 1 -19z m562 -5 c3 -5 1 -10 -4 -10 -6 0 -11
5 -11 10 0 6 2 10 4 10 3 0 8 -4 11 -10z m55 4 c0 -8 -19 -13 -24 -6 -3 5 1 9
9 9 8 0 15 -2 15 -3z m1070 -4 c0 -5 -2 -10 -4 -10 -3 0 -8 5 -11 10 -3 6 -1
10 4 10 6 0 11 -4 11 -10z m620 -5 c0 -2 -9 -3 -19 -2 -11 0 -18 5 -15 9 4 6
34 0 34 -7z m-2409 -28 c-10 -9 -11 -8 -5 6 3 10 9 15 12 12 3 -3 0 -11 -7
-18z m1883 15 c3 -5 -1 -9 -9 -9 -8 0 -12 4 -9 9 3 4 7 8 9 8 2 0 6 -4 9 -8z
m-1334 -22 c0 -5 -2 -10 -4 -10 -3 0 -8 5 -11 10 -3 6 -1 10 4 10 6 0 11 -4
11 -10z m1396 -5 c-1 -8 -5 -17 -8 -21 -5 -4 -4 16 1 34 3 9 9 -1 7 -13z m484
9 c0 -8 -19 -13 -24 -6 -3 5 1 9 9 9 8 0 15 -2 15 -3z m56 -6 c3 -4 -1 -5 -10
-4 -8 1 -18 5 -22 8 -3 4 1 5 10 4 8 -1 18 -5 22 -8z m-2540 -40 c3 -4 -1 -5
-10 -4 -8 1 -18 5 -22 8 -3 4 1 5 10 4 8 -1 18 -5 22 -8z m517 -13 c-7 -21
-12 -19 -10 4 0 11 5 18 9 15 4 -3 5 -11 1 -19z m1537 19 c0 -8 -19 -13 -24
-6 -3 5 1 9 9 9 8 0 15 -2 15 -3z m48 -29 c-3 -3 -9 2 -12 12 -6 14 -5 15 5 6
7 -7 10 -15 7 -18z m522 11 c0 -3 -4 -8 -10 -11 -5 -3 -10 -1 -10 4 0 6 5 11
10 11 6 0 10 -2 10 -4z m4 -44 c3 -5 -1 -9 -9 -9 -8 0 -12 4 -9 9 3 4 7 8 9 8
2 0 6 -4 9 -8z m-2230 -21 c3 -5 -2 -15 -12 -22 -15 -12 -16 -12 -5 2 7 9 10
19 6 22 -3 4 -4 7 0 7 3 0 8 -4 11 -9z m46 3 c0 -8 -19 -13 -24 -6 -3 5 1 9 9
9 8 0 15 -2 15 -3z m2235 -4 c3 -5 1 -10 -4 -10 -6 0 -11 5 -11 10 0 6 2 10 4
10 3 0 8 -4 11 -10z m-2321 -38 c3 -5 -1 -9 -9 -9 -8 0 -12 4 -9 9 3 4 7 8 9
8 2 0 6 -4 9 -8z m1846 -2 c0 -5 -2 -10 -4 -10 -3 0 -8 5 -11 10 -3 6 -1 10 4
10 6 0 11 -4 11 -10z m520 6 c0 -3 -4 -8 -10 -11 -5 -3 -10 -1 -10 4 0 6 5 11
10 11 6 0 10 -2 10 -4z m-2443 -41 c0 -8 -4 -12 -9 -9 -5 3 -6 10 -3 15 9 13
12 11 12 -6z m36 -20 c-7 -21 -12 -19 -10 4 0 11 5 18 9 15 4 -3 5 -11 1 -19z
m1924 10 c0 -8 -4 -12 -9 -9 -5 3 -6 10 -3 15 9 13 12 11 12 -6z m543 -9 c0
-2 -7 -7 -16 -10 -8 -3 -12 -2 -9 4 6 10 25 14 25 6z m-2985 -25 c3 -5 2 -12
-3 -15 -5 -3 -9 1 -9 9 0 17 3 19 12 6z m445 -1 c0 -5 -5 -10 -11 -10 -5 0 -7
5 -4 10 3 6 8 10 11 10 2 0 4 -4 4 -10z m2560 4 c0 -8 -19 -13 -24 -6 -3 5 1
9 9 9 8 0 15 -2 15 -3z m-480 -24 c0 -5 -5 -10 -11 -10 -5 0 -7 5 -4 10 3 6 8
10 11 10 2 0 4 -4 4 -10z m-2560 -16 c0 -8 -19 -13 -24 -6 -3 5 1 9 9 9 8 0
15 -2 15 -3z m2615 -24 c3 -5 1 -10 -4 -10 -6 0 -11 5 -11 10 0 6 2 10 4 10 3
0 8 -4 11 -10z m-2640 -29 c3 -5 2 -12 -3 -15 -5 -3 -9 1 -9 9 0 17 3 19 12 6z
m2702 -6 c0 -8 -4 -12 -9 -9 -5 3 -6 10 -3 15 9 13 12 11 12 -6z m443 -25 c0
-5 -5 -10 -11 -10 -5 0 -7 5 -4 10 3 6 8 10 11 10 2 0 4 -4 4 -10z m-426 -26
c3 -8 2 -12 -4 -9 -6 3 -10 10 -10 16 0 14 7 11 14 -7z m-2774 -8 c0 -3 -4 -8
-10 -11 -5 -3 -10 -1 -10 4 0 6 5 11 10 11 6 0 10 -2 10 -4z m437 -18 c2 -17
0 -19 -7 -8 -5 8 -6 18 -4 22 8 12 10 10 11 -14z m2803 12 c0 -5 -5 -10 -11
-10 -5 0 -7 5 -4 10 3 6 8 10 11 10 2 0 4 -4 4 -10z m-3320 -34 c0 -3 -4 -8
-10 -11 -5 -3 -10 -1 -10 4 0 6 5 11 10 11 6 0 10 -2 10 -4z m2880 -6 c0 -5
-2 -10 -4 -10 -3 0 -8 5 -11 10 -3 6 -1 10 4 10 6 0 11 -4 11 -10z m37 -12 c2
-17 0 -19 -7 -8 -5 8 -6 18 -4 22 8 12 10 10 11 -14z m523 -62 c0 -3 -4 -8
-10 -11 -5 -3 -10 -1 -10 4 0 6 5 11 10 11 6 0 10 -2 10 -4z m-455 -26 c-3 -5
-12 -10 -18 -10 -7 0 -6 4 3 10 19 12 23 12 15 0z m-3030 -20 c3 -5 1 -10 -4
-10 -6 0 -11 5 -11 10 0 6 2 10 4 10 3 0 8 -4 11 -10z m449 2 c3 -5 -1 -9 -9
-9 -8 0 -12 4 -9 9 3 4 7 8 9 8 2 0 6 -4 9 -8z m-49 -42 c3 -5 1 -10 -4 -10
-6 0 -11 5 -11 10 0 6 2 10 4 10 3 0 8 -4 11 -10z m2685 0 c0 -5 -5 -10 -11
-10 -5 0 -7 5 -4 10 3 6 8 10 11 10 2 0 4 -4 4 -10z m-3160 -36 c0 -8 -19 -13
-24 -6 -3 5 1 9 9 9 8 0 15 -2 15 -3z m3200 -4 c0 -5 -5 -10 -11 -10 -5 0 -7
5 -4 10 3 6 8 10 11 10 2 0 4 -4 4 -10z m414 -18 c3 -5 -1 -9 -9 -9 -8 0 -12
4 -9 9 3 4 7 8 9 8 2 0 6 -4 9 -8z m-3677 -77 c0 -8 -4 -12 -9 -9 -5 3 -6 10
-3 15 9 13 12 11 12 -6z m3296 -10 c4 -8 3 -16 -1 -19 -4 -3 -9 4 -9 15 -2 23
3 25 10 4z m465 -20 c-3 -3 -9 2 -12 12 -6 14 -5 15 5 6 7 -7 10 -15 7 -18z
m-3298 5 c0 -5 -5 -10 -11 -10 -5 0 -7 5 -4 10 3 6 8 10 11 10 2 0 4 -4 4 -10z
m-44 -25 c-1 -8 -5 -17 -8 -21 -5 -4 -4 16 1 34 3 9 9 -1 7 -13z m38 -13 c3
-5 -1 -9 -9 -9 -8 0 -12 4 -9 9 3 4 7 8 9 8 2 0 6 -4 9 -8z m-518 -58 c1 -9 0
-13 -4 -10 -3 4 -7 14 -8 22 -1 9 0 13 4 10 3 -4 7 -14 8 -22z m44 20 c0 -8
-19 -13 -24 -6 -3 5 1 9 9 9 8 0 15 -2 15 -3z m440 -4 c0 -5 -5 -10 -11 -10
-5 0 -7 5 -4 10 3 6 8 10 11 10 2 0 4 -4 4 -10z m3357 -5 c0 -8 -4 -12 -9 -9
-5 3 -6 10 -3 15 9 13 12 11 12 -6z m-3397 -35 c0 -5 -2 -10 -4 -10 -3 0 -8 5
-11 10 -3 6 -1 10 4 10 6 0 11 -4 11 -10z m3000 0 c0 -5 -2 -10 -4 -10 -3 0
-8 5 -11 10 -3 6 -1 10 4 10 6 0 11 -4 11 -10z m394 2 c3 -5 -1 -9 -9 -9 -8 0
-12 4 -9 9 3 4 7 8 9 8 2 0 6 -4 9 -8z m36 -57 c0 -2 -6 -8 -13 -14 -10 -8
-14 -7 -14 2 0 8 6 14 14 14 7 0 13 -1 13 -2z m-3430 -25 c0 -5 -5 -10 -11
-10 -5 0 -7 5 -4 10 3 6 8 10 11 10 2 0 4 -4 4 -10z m3475 0 c3 -5 1 -10 -4
-10 -6 0 -11 5 -11 10 0 6 2 10 4 10 3 0 8 -4 11 -10z m-3975 -44 c0 -2 -8
-10 -17 -17 -16 -13 -17 -12 -4 4 13 16 21 21 21 13z m477 -11 c0 -8 -4 -12
-9 -9 -5 3 -6 10 -3 15 9 13 12 11 12 -6z m3063 -25 c0 -5 -5 -10 -11 -10 -5
0 -7 5 -4 10 3 6 8 10 11 10 2 0 4 -4 4 -10z m440 0 c0 -5 -5 -10 -11 -10 -5
0 -7 5 -4 10 3 6 8 10 11 10 2 0 4 -4 4 -10z m-4022 -65 c-3 -3 -9 2 -12 12
-6 14 -5 15 5 6 7 -7 10 -15 7 -18z m4076 -41 c3 -8 2 -12 -4 -9 -6 3 -10 10
-10 16 0 14 7 11 14 -7z m-3614 -8 c0 -3 -4 -8 -10 -11 -5 -3 -10 -1 -10 4 0
6 5 11 10 11 6 0 10 -2 10 -4z m3644 -44 c3 -5 -1 -9 -9 -9 -8 0 -12 4 -9 9 3
4 7 8 9 8 2 0 6 -4 9 -8z m-469 -21 c3 -5 2 -12 -3 -15 -5 -3 -9 1 -9 9 0 17
3 19 12 6z m-3215 -15 c0 -3 -4 -8 -10 -11 -5 -3 -10 -1 -10 4 0 6 5 11 10 11
6 0 10 -2 10 -4z m-460 -30 c-7 -7 -13 -7 -20 0 -6 6 -3 10 10 10 13 0 16 -4
10 -10z m4174 -18 c-3 -4 -11 -5 -19 -1 -21 7 -19 12 4 10 11 0 18 -5 15 -9z
m-3739 -17 c3 -5 2 -12 -3 -15 -5 -3 -9 1 -9 9 0 17 3 19 12 6z m3260 -21 c3
-5 1 -10 -4 -10 -6 0 -11 5 -11 10 0 6 2 10 4 10 3 0 8 -4 11 -10z m-3755 -40
c0 -5 -5 -10 -11 -10 -5 0 -7 5 -4 10 3 6 8 10 11 10 2 0 4 -4 4 -10z m3770 4
c0 -8 -19 -13 -24 -6 -3 5 1 9 9 9 8 0 15 -2 15 -3z m470 -4 c0 -5 -5 -10 -11
-10 -5 0 -7 5 -4 10 3 6 8 10 11 10 2 0 4 -4 4 -10z m-3763 -29 c0 -11 -5 -18
-9 -15 -4 3 -5 11 -1 19 7 21 12 19 10 -4z m3278 0 c3 -5 2 -12 -3 -15 -5 -3
-9 1 -9 9 0 17 3 19 12 6z m540 -31 c3 -5 1 -10 -4 -10 -6 0 -11 5 -11 10 0 6
2 10 4 10 3 0 8 -4 11 -10z m-3820 -19 c3 -5 2 -12 -3 -15 -5 -3 -9 1 -9 9 0
17 3 19 12 6z m9 -39 c3 -5 -1 -9 -9 -9 -8 0 -12 4 -9 9 3 4 7 8 9 8 2 0 6 -4
9 -8z m3331 -41 c-9 -8 -36 -10 -30 -2 2 4 11 8 20 8 8 0 13 -3 10 -6z m505 5
c0 -3 -4 -8 -10 -11 -5 -3 -10 -1 -10 4 0 6 5 11 10 11 6 0 10 -2 10 -4z
m-4405 -46 c3 -5 1 -10 -4 -10 -6 0 -11 5 -11 10 0 6 2 10 4 10 3 0 8 -4 11
-10z m55 4 c0 -8 -19 -13 -24 -6 -3 5 1 9 9 9 8 0 15 -2 15 -3z m460 -20 c0
-8 -19 -13 -24 -6 -3 5 1 9 9 9 8 0 15 -2 15 -3z m-477 -19 c-3 -9 -8 -14 -10
-11 -3 3 -2 9 2 15 9 16 15 13 8 -4z m482 -44 c3 -5 2 -12 -3 -15 -5 -3 -9 1
-9 9 0 17 3 19 12 6z m3400 -1 c3 -5 1 -10 -4 -10 -6 0 -11 5 -11 10 0 6 2 10
4 10 3 0 8 -4 11 -10z m-3935 -20 c0 -5 -4 -10 -10 -10 -5 0 -10 5 -10 10 0 6
5 10 10 10 6 0 10 -4 10 -10z m4434 -6 c3 -8 2 -12 -4 -9 -6 3 -10 10 -10 16
0 14 7 11 14 -7z m-494 -48 c0 -3 -4 -8 -10 -11 -5 -3 -10 -1 -10 4 0 6 5 11
10 11 6 0 10 -2 10 -4z m530 -2 c0 -8 -19 -13 -24 -6 -3 5 1 9 9 9 8 0 15 -2
15 -3z m-4497 -29 c4 -8 3 -16 -1 -19 -4 -3 -9 4 -9 15 -2 23 3 25 10 4z m41
-13 c3 -5 -1 -9 -9 -9 -8 0 -12 4 -9 9 3 4 7 8 9 8 2 0 6 -4 9 -8z m3941 -30
c-3 -3 -11 0 -18 7 -9 10 -8 11 6 5 10 -3 15 -9 12 -12z m545 -12 c0 -5 -5
-10 -11 -10 -5 0 -7 5 -4 10 3 6 8 10 11 10 2 0 4 -4 4 -10z m-4025 -68 c-3
-3 -11 0 -18 7 -9 10 -8 11 6 5 10 -3 15 -9 12 -12z m-495 -6 c0 -3 -4 -8 -10
-11 -5 -3 -10 -1 -10 4 0 6 5 11 10 11 6 0 10 -2 10 -4z m-43 -35 c0 -11 -5
-18 -9 -15 -4 3 -5 11 -1 19 7 21 12 19 10 -4z m540 2 c0 -9 -4 -10 -14 -2 -7
6 -13 12 -13 14 0 1 6 2 13 2 8 0 14 -6 14 -14z m4001 -38 c-3 -3 -9 2 -12 12
-6 14 -5 15 5 6 7 -7 10 -15 7 -18z m-3978 -15 c0 -5 -2 -10 -4 -10 -3 0 -8 5
-11 10 -3 6 -1 10 4 10 6 0 11 -4 11 -10z m-545 -39 c-9 -8 -36 -10 -30 -2 2
4 11 8 20 8 8 0 13 -3 10 -6z m500 -41 c3 -5 1 -10 -4 -10 -6 0 -11 5 -11 10
0 6 2 10 4 10 3 0 8 -4 11 -10z m4080 0 c3 -5 1 -10 -4 -10 -6 0 -11 5 -11 10
0 6 2 10 4 10 3 0 8 -4 11 -10z m-4595 -40 c0 -5 -5 -10 -11 -10 -5 0 -7 5 -4
10 3 6 8 10 11 10 2 0 4 -4 4 -10z m4594 2 c3 -5 -1 -9 -9 -9 -8 0 -12 4 -9 9
3 4 7 8 9 8 2 0 6 -4 9 -8z m-519 -42 c3 -5 1 -10 -4 -10 -6 0 -11 5 -11 10 0
6 2 10 4 10 3 0 8 -4 11 -10z m-3560 -40 c3 -5 1 -10 -4 -10 -6 0 -11 5 -11
10 0 6 2 10 4 10 3 0 8 -4 11 -10z m3562 -75 c0 -8 -4 -12 -9 -9 -5 3 -6 10
-3 15 9 13 12 11 12 -6z m523 -1 c0 -8 -19 -13 -24 -6 -3 5 1 9 9 9 8 0 15 -2
15 -3z m-3 -39 c0 -8 -4 -12 -9 -9 -5 3 -6 10 -3 15 9 13 12 11 12 -6z m-4621
-7 c3 -4 -1 -5 -10 -4 -8 1 -18 5 -22 8 -3 4 1 5 10 4 8 -1 18 -5 22 -8z m501
-7 c0 -11 -5 -18 -9 -15 -4 3 -5 11 -1 19 7 21 12 19 10 -4z m-517 -25 c0 -3
-4 -8 -10 -11 -5 -3 -10 -1 -10 4 0 6 5 11 10 11 6 0 10 -2 10 -4z m4100 -2
c0 -8 -19 -13 -24 -6 -3 5 1 9 9 9 8 0 15 -2 15 -3z m-3565 -53 c3 -5 2 -12
-3 -15 -5 -3 -9 1 -9 9 0 17 3 19 12 6z m3585 -67 c0 -8 -19 -13 -24 -6 -3 5
1 9 9 9 8 0 15 -2 15 -3z m560 -4 c0 -5 -2 -10 -4 -10 -3 0 -8 5 -11 10 -3 6
-1 10 4 10 6 0 11 -4 11 -10z m16 -82 c3 -4 -1 -5 -10 -4 -8 1 -18 5 -22 8 -3
4 1 5 10 4 8 -1 18 -5 22 -8z m-4736 -32 c0 -3 -4 -8 -10 -11 -5 -3 -10 -1
-10 4 0 6 5 11 10 11 6 0 10 -2 10 -4z m4170 -42 c0 -8 -19 -13 -24 -6 -3 5 1
9 9 9 8 0 15 -2 15 -3z m550 2 c0 -3 -4 -8 -10 -11 -5 -3 -10 -1 -10 4 0 6 5
11 10 11 6 0 10 -2 10 -4z m-520 -46 c0 -5 -2 -10 -4 -10 -3 0 -8 5 -11 10 -3
6 -1 10 4 10 6 0 11 -4 11 -10z m540 -24 c0 -2 -6 -9 -14 -15 -11 -9 -16 -9
-22 0 -4 7 -3 9 4 5 6 -3 13 -2 17 4 6 10 15 14 15 6z m-4743 -21 c0 -8 -4
-12 -9 -9 -5 3 -6 10 -3 15 9 13 12 11 12 -6z m558 -34 c3 -5 2 -12 -3 -15 -5
-3 -9 1 -9 9 0 17 3 19 12 6z m4169 1 c3 -5 -1 -9 -9 -9 -8 0 -12 4 -9 9 3 4
7 8 9 8 2 0 6 -4 9 -8z m31 -2 c3 -5 1 -10 -4 -10 -6 0 -11 5 -11 10 0 6 2 10
4 10 3 0 8 -4 11 -10z m-4191 -38 c3 -5 -1 -9 -9 -9 -8 0 -12 4 -9 9 3 4 7 8
9 8 2 0 6 -4 9 -8z m-9 -82 c3 -5 1 -10 -4 -10 -6 0 -11 5 -11 10 0 6 2 10 4
10 3 0 8 -4 11 -10z m3605 0 c0 -5 -5 -10 -11 -10 -5 0 -7 5 -4 10 3 6 8 10
11 10 2 0 4 -4 4 -10z m-4145 -9 c3 -5 2 -12 -3 -15 -5 -3 -9 1 -9 9 0 17 3
19 12 6z m-60 -71 c3 -5 1 -10 -4 -10 -6 0 -11 5 -11 10 0 6 2 10 4 10 3 0 8
-4 11 -10z m4202 -52 c2 -17 0 -19 -7 -8 -5 8 -6 18 -4 22 8 12 10 10 11 -14z
m596 -3 c-7 -21 -12 -19 -10 4 0 11 5 18 9 15 4 -3 5 -11 1 -19z m-4753 -65
c0 -5 -2 -10 -4 -10 -3 0 -8 5 -11 10 -3 6 -1 10 4 10 6 0 11 -4 11 -10z
m4185 -20 c-3 -5 -12 -10 -18 -10 -7 0 -6 4 3 10 19 12 23 12 15 0z m-4225
-60 c0 -5 -2 -10 -4 -10 -3 0 -8 5 -11 10 -3 6 -1 10 4 10 6 0 11 -4 11 -10z
m596 -16 c1 -9 0 -13 -4 -10 -3 4 -7 14 -8 22 -1 9 0 13 4 10 3 -4 7 -14 8
-22z m3600 11 c-1 -8 -5 -17 -8 -21 -5 -4 -4 16 1 34 3 9 9 -1 7 -13z m597
-10 c-7 -21 -12 -19 -10 4 0 11 5 18 9 15 4 -3 5 -11 1 -19z m-4798 -54 c3 -5
2 -12 -3 -15 -5 -3 -9 1 -9 9 0 17 3 19 12 6z m600 -51 c3 -5 1 -10 -4 -10 -6
0 -11 5 -11 10 0 6 2 10 4 10 3 0 8 -4 11 -10z m4205 0 c0 -5 -5 -10 -11 -10
-5 0 -7 5 -4 10 3 6 8 10 11 10 2 0 4 -4 4 -10z m-4206 -38 c3 -5 -1 -9 -9 -9
-8 0 -12 4 -9 9 3 4 7 8 9 8 2 0 6 -4 9 -8z m4183 -17 c0 -8 -4 -12 -9 -9 -5
3 -6 10 -3 15 9 13 12 11 12 -6z m-4781 -21 c1 -9 0 -13 -4 -10 -3 4 -7 14 -8
22 -1 9 0 13 4 10 3 -4 7 -14 8 -22z m4224 20 c0 -8 -19 -13 -24 -6 -3 5 1 9
9 9 8 0 15 -2 15 -3z m560 -40 c0 -8 -19 -13 -24 -6 -3 5 1 9 9 9 8 0 15 -2
15 -3z m-4780 -24 c0 -5 -5 -10 -11 -10 -5 0 -7 5 -4 10 3 6 8 10 11 10 2 0 4
-4 4 -10z m4194 2 c3 -5 -1 -9 -9 -9 -8 0 -12 4 -9 9 3 4 7 8 9 8 2 0 6 -4 9
-8z m-3583 -35 c-10 -9 -11 -8 -5 6 3 10 9 15 12 12 3 -3 0 -11 -7 -18z m3639
-3 c0 -8 -19 -13 -24 -6 -3 5 1 9 9 9 8 0 15 -2 15 -3z m550 -4 c0 -5 -5 -10
-11 -10 -5 0 -7 5 -4 10 3 6 8 10 11 10 2 0 4 -4 4 -10z m-603 -69 c0 -11 -5
-18 -9 -15 -4 3 -5 11 -1 19 7 21 12 19 10 -4z m-4197 -11 c0 -5 -5 -10 -11
-10 -5 0 -7 5 -4 10 3 6 8 10 11 10 2 0 4 -4 4 -10z m600 0 c0 -5 -2 -10 -4
-10 -3 0 -8 5 -11 10 -3 6 -1 10 4 10 6 0 11 -4 11 -10z m4225 -20 c3 -6 -1
-7 -9 -4 -18 7 -21 14 -7 14 6 0 13 -4 16 -10z m-592 -35 c-7 -21 -12 -19 -10
4 0 11 5 18 9 15 4 -3 5 -11 1 -19z m-4198 -25 c3 -5 1 -10 -4 -10 -6 0 -11 5
-11 10 0 6 2 10 4 10 3 0 8 -4 11 -10z m565 0 c0 -5 -2 -10 -4 -10 -3 0 -8 5
-11 10 -3 6 -1 10 4 10 6 0 11 -4 11 -10z m-7 -95 c-7 -21 -12 -19 -10 4 0 11
5 18 9 15 4 -3 5 -11 1 -19z m4232 15 c-3 -5 -12 -10 -18 -10 -7 0 -6 4 3 10
19 12 23 12 15 0z m-4791 -38 c3 -5 -1 -9 -9 -9 -8 0 -12 4 -9 9 3 4 7 8 9 8
2 0 6 -4 9 -8z m4766 -2 c0 -5 -2 -10 -4 -10 -3 0 -8 5 -11 10 -3 6 -1 10 4
10 6 0 11 -4 11 -10z m-585 -28 c-3 -3 -11 0 -18 7 -9 10 -8 11 6 5 10 -3 15
-9 12 -12z m10 -32 c-3 -5 -12 -10 -18 -10 -7 0 -6 4 3 10 19 12 23 12 15 0z
m-4181 -18 c3 -5 -1 -9 -9 -9 -8 0 -12 4 -9 9 3 4 7 8 9 8 2 0 6 -4 9 -8z
m576 -62 c0 -5 -2 -10 -4 -10 -3 0 -8 5 -11 10 -3 6 -1 10 4 10 6 0 11 -4 11
-10z m3616 -5 c-1 -8 -5 -17 -8 -21 -5 -4 -4 16 1 34 3 9 9 -1 7 -13z m-4201
-14 c3 -5 2 -12 -3 -15 -5 -3 -9 1 -9 9 0 17 3 19 12 6z m9 -39 c3 -5 -1 -9
-9 -9 -8 0 -12 4 -9 9 3 4 7 8 9 8 2 0 6 -4 9 -8z m4713 -11 c0 -11 -5 -18 -9
-15 -4 3 -5 11 -1 19 7 21 12 19 10 -4z m-557 -31 c0 -5 -5 -10 -11 -10 -5 0
-7 5 -4 10 3 6 8 10 11 10 2 0 4 -4 4 -10z m-4145 -9 c3 -5 2 -12 -3 -15 -5
-3 -9 1 -9 9 0 17 3 19 12 6z m4720 -40 c3 -5 2 -12 -3 -15 -5 -3 -9 1 -9 9 0
17 3 19 12 6z m-4735 -31 c0 -5 -2 -10 -4 -10 -3 0 -8 5 -11 10 -3 6 -1 10 4
10 6 0 11 -4 11 -10z m570 4 c0 -8 -19 -13 -24 -6 -3 5 1 9 9 9 8 0 15 -2 15
-3z m-15 -33 c3 -5 2 -12 -3 -15 -5 -3 -9 1 -9 9 0 17 3 19 12 6z m3618 -26
c-3 -9 -8 -14 -10 -11 -3 3 -2 9 2 15 9 16 15 13 8 -4z m-3588 -45 c3 -6 -1
-7 -9 -4 -18 7 -21 14 -7 14 6 0 13 -4 16 -10z m-590 -20 c3 -5 1 -10 -4 -10
-6 0 -11 5 -11 10 0 6 2 10 4 10 3 0 8 -4 11 -10z m4161 -36 c1 -9 0 -13 -4
-10 -3 4 -7 14 -8 22 -1 9 0 13 4 10 3 -4 7 -14 8 -22z m-4106 0 c0 -8 -19
-13 -24 -6 -3 5 1 9 9 9 8 0 15 -2 15 -3z m505 -43 c3 -5 2 -12 -3 -15 -5 -3
-9 1 -9 9 0 17 3 19 12 6z m9 -39 c3 -5 -1 -9 -9 -9 -8 0 -12 4 -9 9 3 4 7 8
9 8 2 0 6 -4 9 -8z m36 -2 c0 -5 -5 -10 -11 -10 -5 0 -7 5 -4 10 3 6 8 10 11
10 2 0 4 -4 4 -10z m3560 0 c0 -5 -2 -10 -4 -10 -3 0 -8 5 -11 10 -3 6 -1 10
4 10 6 0 11 -4 11 -10z m-4124 -25 c-1 -8 -5 -17 -8 -21 -5 -4 -4 16 1 34 3 9
9 -1 7 -13z m4659 6 c3 -5 2 -12 -3 -15 -5 -3 -9 1 -9 9 0 17 3 19 12 6z
m-538 -33 c2 -17 0 -19 -7 -8 -5 8 -6 18 -4 22 8 12 10 10 11 -14z m-4120 -33
c0 -8 -4 -12 -9 -9 -5 3 -6 10 -3 15 9 13 12 11 12 -6z m523 -9 c0 -3 -4 -8
-10 -11 -5 -3 -10 -1 -10 4 0 6 5 11 10 11 6 0 10 -2 10 -4z m-526 -24 c3 -5
-1 -9 -9 -9 -8 0 -12 4 -9 9 3 4 7 8 9 8 2 0 6 -4 9 -8z m4686 4 c0 -3 -4 -8
-10 -11 -5 -3 -10 -1 -10 4 0 6 5 11 10 11 6 0 10 -2 10 -4z m-50 -22 c0 -8
-19 -13 -24 -6 -3 5 1 9 9 9 8 0 15 -2 15 -3z m-4630 -24 c0 -5 -5 -10 -11
-10 -5 0 -7 5 -4 10 3 6 8 10 11 10 2 0 4 -4 4 -10z m4120 0 c0 -5 -2 -10 -4
-10 -3 0 -8 5 -11 10 -3 6 -1 10 4 10 6 0 11 -4 11 -10z m-3560 -34 c0 -3 -4
-8 -10 -11 -5 -3 -10 -1 -10 4 0 6 5 11 10 11 6 0 10 -2 10 -4z m3520 -46 c0
-5 -5 -10 -11 -10 -5 0 -7 5 -4 10 3 6 8 10 11 10 2 0 4 -4 4 -10z m560 -40
c0 -5 -2 -10 -4 -10 -3 0 -8 5 -11 10 -3 6 -1 10 4 10 6 0 11 -4 11 -10z
m-4055 -20 c3 -6 -1 -7 -9 -4 -18 7 -21 14 -7 14 6 0 13 -4 16 -10z m3495 -60
c0 -5 -5 -10 -11 -10 -5 0 -7 5 -4 10 3 6 8 10 11 10 2 0 4 -4 4 -10z m516
-16 c1 -9 0 -13 -4 -10 -3 4 -7 14 -8 22 -1 9 0 13 4 10 3 -4 7 -14 8 -22z
m44 20 c0 -8 -19 -13 -24 -6 -3 5 1 9 9 9 8 0 15 -2 15 -3z m-4084 -80 c1 -9
0 -13 -4 -10 -3 4 -7 14 -8 22 -1 9 0 13 4 10 3 -4 7 -14 8 -22z m-521 -3 c3
-5 2 -12 -3 -15 -5 -3 -9 1 -9 9 0 17 3 19 12 6z m4560 -22 c1 -11 -1 -22 -5
-24 -3 -2 -6 9 -6 25 0 33 9 32 11 -1z m-3995 -19 c0 -5 -5 -10 -11 -10 -5 0
-7 5 -4 10 3 6 8 10 11 10 2 0 4 -4 4 -10z m3440 -34 c0 -3 -4 -8 -10 -11 -5
-3 -10 -1 -10 4 0 6 5 11 10 11 6 0 10 -2 10 -4z m50 -2 c0 -8 -19 -13 -24 -6
-3 5 1 9 9 9 8 0 15 -2 15 -3z m-4010 -38 c0 -3 -4 -8 -10 -11 -5 -3 -10 -1
-10 4 0 6 5 11 10 11 6 0 10 -2 10 -4z m524 -4 c3 -5 -1 -9 -9 -9 -8 0 -12 4
-9 9 3 4 7 8 9 8 2 0 6 -4 9 -8z m3480 0 c3 -5 -1 -9 -9 -9 -8 0 -12 4 -9 9 3
4 7 8 9 8 2 0 6 -4 9 -8z m-44 -36 c0 -3 -4 -8 -10 -11 -5 -3 -10 -1 -10 4 0
6 5 11 10 11 6 0 10 -2 10 -4z m520 -6 c0 -5 -5 -10 -11 -10 -5 0 -7 5 -4 10
3 6 8 10 11 10 2 0 4 -4 4 -10z m-4465 -28 c-3 -3 -11 0 -18 7 -9 10 -8 11 6
5 10 -3 15 -9 12 -12z m505 -12 c0 -5 -5 -10 -11 -10 -5 0 -7 5 -4 10 3 6 8
10 11 10 2 0 4 -4 4 -10z m3435 0 c3 -5 1 -10 -4 -10 -6 0 -11 5 -11 10 0 6 2
10 4 10 3 0 8 -4 11 -10z m485 -36 c0 -8 -19 -13 -24 -6 -3 5 1 9 9 9 8 0 15
-2 15 -3z m-3885 -33 c3 -5 2 -12 -3 -15 -5 -3 -9 1 -9 9 0 17 3 19 12 6z
m3400 0 c3 -5 2 -12 -3 -15 -5 -3 -9 1 -9 9 0 17 3 19 12 6z m-3915 -47 c0 -8
-19 -13 -24 -6 -3 5 1 9 9 9 8 0 15 -2 15 -3z m35 -43 c-9 -8 -36 -10 -30 -2
2 4 11 8 20 8 8 0 13 -3 10 -6z m3879 -19 c3 -5 -1 -9 -9 -9 -8 0 -12 4 -9 9
3 4 7 8 9 8 2 0 6 -4 9 -8z m-3877 -17 c0 -8 -4 -12 -9 -9 -5 3 -6 10 -3 15 9
13 12 11 12 -6z m478 -4 c3 -5 2 -12 -3 -15 -5 -3 -9 1 -9 9 0 17 3 19 12 6z
m3845 -1 c0 -5 -5 -10 -11 -10 -5 0 -7 5 -4 10 3 6 8 10 11 10 2 0 4 -4 4 -10z
m-483 -45 c0 -8 -4 -12 -9 -9 -5 3 -6 10 -3 15 9 13 12 11 12 -6z m-3837 -29
c0 -3 -4 -8 -10 -11 -5 -3 -10 -1 -10 4 0 6 5 11 10 11 6 0 10 -2 10 -4z m40
-6 c0 -5 -2 -10 -4 -10 -3 0 -8 5 -11 10 -3 6 -1 10 4 10 6 0 11 -4 11 -10z
m480 6 c0 -3 -4 -8 -10 -11 -5 -3 -10 -1 -10 4 0 6 5 11 10 11 6 0 10 -2 10
-4z m3314 -4 c3 -5 -1 -9 -9 -9 -8 0 -12 4 -9 9 3 4 7 8 9 8 2 0 6 -4 9 -8z
m-34 -36 c0 -3 -4 -8 -10 -11 -5 -3 -10 -1 -10 4 0 6 5 11 10 11 6 0 10 -2 10
-4z m50 -2 c0 -8 -19 -13 -24 -6 -3 5 1 9 9 9 8 0 15 -2 15 -3z m425 -13 c3
-5 2 -12 -3 -15 -5 -3 -9 1 -9 9 0 17 3 19 12 6z m-4205 -45 c0 -2 -8 -10 -17
-17 -16 -13 -17 -12 -4 4 13 16 21 21 21 13z m4167 -61 c0 -8 -4 -12 -9 -9 -5
3 -6 10 -3 15 9 13 12 11 12 -6z m56 -20 c-3 -9 -8 -14 -10 -11 -3 3 -2 9 2
15 9 16 15 13 8 -4z m-3713 -20 c0 -7 -30 -13 -34 -7 -3 4 4 9 15 9 10 1 19 0
19 -2z m3655 -45 c3 -5 1 -10 -4 -10 -6 0 -11 5 -11 10 0 6 2 10 4 10 3 0 8
-4 11 -10z m-475 -40 c0 -5 -2 -10 -4 -10 -3 0 -8 5 -11 10 -3 6 -1 10 4 10 6
0 11 -4 11 -10z m-3640 -40 c0 -5 -2 -10 -4 -10 -3 0 -8 5 -11 10 -3 6 -1 10
4 10 6 0 11 -4 11 -10z m493 -15 c-3 -9 -8 -14 -10 -11 -3 3 -2 9 2 15 9 16
15 13 8 -4z m3582 -24 c3 -5 2 -12 -3 -15 -5 -3 -9 1 -9 9 0 17 3 19 12 6z
m-4045 -17 c0 -8 -19 -13 -24 -6 -3 5 1 9 9 9 8 0 15 -2 15 -3z m461 -51 c13
-16 12 -17 -3 -4 -10 7 -18 15 -18 17 0 8 8 3 21 -13z m-416 -53 c3 -5 1 -10
-4 -10 -6 0 -11 5 -11 10 0 6 2 10 4 10 3 0 8 -4 11 -10z m3922 -5 c0 -8 -4
-12 -9 -9 -5 3 -6 10 -3 15 9 13 12 11 12 -6z m14 -28 c-10 -9 -11 -8 -5 6 3
10 9 15 12 12 3 -3 0 -11 -7 -18z m-451 -7 c0 -5 -5 -10 -11 -10 -5 0 -7 5 -4
10 3 6 8 10 11 10 2 0 4 -4 4 -10z m-3005 -40 c3 -5 1 -10 -4 -10 -6 0 -11 5
-11 10 0 6 2 10 4 10 3 0 8 -4 11 -10z m2961 -5 c-1 -8 -5 -17 -8 -21 -5 -4
-4 16 1 34 3 9 9 -1 7 -13z m-3381 -15 c3 -5 1 -10 -4 -10 -6 0 -11 5 -11 10
0 6 2 10 4 10 3 0 8 -4 11 -10z m455 6 c0 -2 -8 -10 -17 -17 -16 -13 -17 -12
-4 4 13 16 21 21 21 13z m45 -66 c3 -5 1 -10 -4 -10 -6 0 -11 5 -11 10 0 6 2
10 4 10 3 0 8 -4 11 -10z m3285 0 c0 -5 -2 -10 -4 -10 -3 0 -8 5 -11 10 -3 6
-1 10 4 10 6 0 11 -4 11 -10z m-446 -38 c2 -4 -5 -9 -17 -9 -17 -2 -19 0 -7 7
18 12 18 12 24 2z m-3260 -28 c3 -8 2 -12 -4 -9 -6 3 -10 10 -10 16 0 14 7 11
14 -7z m3226 -14 c0 -5 -5 -10 -11 -10 -5 0 -7 5 -4 10 3 6 8 10 11 10 2 0 4
-4 4 -10z m480 0 c0 -5 -5 -10 -11 -10 -5 0 -7 5 -4 10 3 6 8 10 11 10 2 0 4
-4 4 -10z m-3205 -79 c3 -5 2 -12 -3 -15 -5 -3 -9 1 -9 9 0 17 3 19 12 6z
m3120 -1 c3 -5 1 -10 -4 -10 -6 0 -11 5 -11 10 0 6 2 10 4 10 3 0 8 -4 11 -10z
m-3111 -38 c3 -5 -1 -9 -9 -9 -8 0 -12 4 -9 9 3 4 7 8 9 8 2 0 6 -4 9 -8z
m3076 4 c0 -3 -4 -8 -10 -11 -5 -3 -10 -1 -10 4 0 6 5 11 10 11 6 0 10 -2 10
-4z m-3484 -31 c-1 -8 -5 -17 -8 -21 -5 -4 -4 16 1 34 3 9 9 -1 7 -13z m444
-15 c0 -5 -2 -10 -4 -10 -3 0 -8 5 -11 10 -3 6 -1 10 4 10 6 0 11 -4 11 -10z
m2597 -5 c0 -8 -4 -12 -9 -9 -5 3 -6 10 -3 15 9 13 12 11 12 -6z m-63 -61 c3
-8 2 -12 -4 -9 -6 3 -10 10 -10 16 0 14 7 11 14 -7z m421 -14 c3 -5 1 -10 -4
-10 -6 0 -11 5 -11 10 0 6 2 10 4 10 3 0 8 -4 11 -10z m45 0 c0 -5 -5 -10 -11
-10 -5 0 -7 5 -4 10 3 6 8 10 11 10 2 0 4 -4 4 -10z m-3403 -45 c0 -8 -4 -12
-9 -9 -5 3 -6 10 -3 15 9 13 12 11 12 -6z m2864 -12 c13 -16 12 -17 -3 -4 -10
7 -18 15 -18 17 0 8 8 3 21 -13z m-2401 -3 c0 -5 -2 -10 -4 -10 -3 0 -8 5 -11
10 -3 6 -1 10 4 10 6 0 11 -4 11 -10z m60 -20 c0 -5 -5 -10 -11 -10 -5 0 -7 5
-4 10 3 6 8 10 11 10 2 0 4 -4 4 -10z m2384 2 c3 -5 -1 -9 -9 -9 -8 0 -12 4
-9 9 3 4 7 8 9 8 2 0 6 -4 9 -8z m-2824 -38 c0 -8 -19 -13 -24 -6 -3 5 1 9 9
9 8 0 15 -2 15 -3z m2776 -6 c3 -4 -1 -5 -10 -4 -8 1 -18 5 -22 8 -3 4 1 5 10
4 8 -1 18 -5 22 -8z m464 2 c0 -5 -2 -10 -4 -10 -3 0 -8 5 -11 10 -3 6 -1 10
4 10 6 0 11 -4 11 -10z m-2760 -40 c0 -5 -2 -10 -4 -10 -3 0 -8 5 -11 10 -3 6
-1 10 4 10 6 0 11 -4 11 -10z m2720 6 c0 -3 -4 -8 -10 -11 -5 -3 -10 -1 -10 4
0 6 5 11 10 11 6 0 10 -2 10 -4z m-3140 -22 c0 -8 -19 -13 -24 -6 -3 5 1 9 9
9 8 0 15 -2 15 -3z m2680 2 c0 -2 -7 -7 -16 -10 -8 -3 -12 -2 -9 4 6 10 25 14
25 6z m-2640 -26 c0 -5 -5 -10 -11 -10 -5 0 -7 5 -4 10 3 6 8 10 11 10 2 0 4
-4 4 -10z m457 -5 c0 -8 -4 -12 -9 -9 -5 3 -6 10 -3 15 9 13 12 11 12 -6z
m2603 5 c0 -5 -2 -10 -4 -10 -3 0 -8 5 -11 10 -3 6 -1 10 4 10 6 0 11 -4 11
-10z m-2606 -38 c3 -5 -1 -9 -9 -9 -8 0 -12 4 -9 9 3 4 7 8 9 8 2 0 6 -4 9 -8z
m46 -2 c0 -5 -2 -10 -4 -10 -3 0 -8 5 -11 10 -3 6 -1 10 4 10 6 0 11 -4 11
-10z m2000 6 c0 -3 -4 -8 -10 -11 -5 -3 -10 -1 -10 4 0 6 5 11 10 11 6 0 10
-2 10 -4z m56 -8 c3 -4 -1 -5 -10 -4 -8 1 -18 5 -22 8 -3 4 1 5 10 4 8 -1 18
-5 22 -8z m-2452 -36 c3 -5 -1 -9 -9 -9 -8 0 -12 4 -9 9 3 4 7 8 9 8 2 0 6 -4
9 -8z m430 -4 c-3 -4 -11 -5 -19 -1 -21 7 -19 12 4 10 11 0 18 -5 15 -9z
m1970 4 c3 -5 -1 -9 -9 -9 -8 0 -12 4 -9 9 3 4 7 8 9 8 2 0 6 -4 9 -8z m396
-76 c0 -3 -4 -8 -10 -11 -5 -3 -10 -1 -10 4 0 6 5 11 10 11 6 0 10 -2 10 -4z
m-600 -46 c0 -5 -5 -10 -11 -10 -5 0 -7 5 -4 10 3 6 8 10 11 10 2 0 4 -4 4
-10z m555 1 c3 -5 2 -12 -3 -15 -5 -3 -9 1 -9 9 0 17 3 19 12 6z m-2598 -36
c0 -8 -4 -12 -9 -9 -5 3 -6 10 -3 15 9 13 12 11 12 -6z m523 -5 c0 -5 -5 -10
-11 -10 -5 0 -7 5 -4 10 3 6 8 10 11 10 2 0 4 -4 4 -10z m1440 6 c0 -3 -4 -8
-10 -11 -5 -3 -10 -1 -10 4 0 6 5 11 10 11 6 0 10 -2 10 -4z m-83 -41 c0 -8
-4 -12 -9 -9 -5 3 -6 10 -3 15 9 13 12 11 12 -6z m-1837 -5 c0 -5 -2 -10 -4
-10 -3 0 -8 5 -11 10 -3 6 -1 10 4 10 6 0 11 -4 11 -10z m517 -5 c0 -8 -4 -12
-9 -9 -5 3 -6 10 -3 15 9 13 12 11 12 -6z m78 5 c3 -5 1 -10 -4 -10 -6 0 -11
5 -11 10 0 6 2 10 4 10 3 0 8 -4 11 -10z m1205 0 c0 -5 -2 -10 -4 -10 -3 0 -8
5 -11 10 -3 6 -1 10 4 10 6 0 11 -4 11 -10z m615 1 c-9 -8 -36 -10 -30 -2 2 4
11 8 20 8 8 0 13 -3 10 -6z m-1761 -19 c3 -5 -1 -9 -9 -9 -8 0 -12 4 -9 9 3 4
7 8 9 8 2 0 6 -4 9 -8z m-577 -17 c0 -8 -4 -12 -9 -9 -5 3 -6 10 -3 15 9 13
12 11 12 -6z m1718 6 c3 -5 2 -12 -3 -15 -5 -3 -9 1 -9 9 0 17 3 19 12 6z
m-81 -9 c3 -5 -1 -9 -9 -9 -8 0 -12 4 -9 9 3 4 7 8 9 8 2 0 6 -4 9 -8z m-1044
-18 c0 -8 -19 -13 -24 -6 -3 5 1 9 9 9 8 0 15 -2 15 -3z m126 -9 c-1 -8 -5
-17 -8 -21 -5 -4 -4 16 1 34 3 9 9 -1 7 -13z m844 5 c0 -5 -2 -10 -4 -10 -3 0
-8 5 -11 10 -3 6 -1 10 4 10 6 0 11 -4 11 -10z m-803 -15 c0 -8 -4 -12 -9 -9
-5 3 -6 10 -3 15 9 13 12 11 12 -6z m-117 -5 c0 -5 -2 -10 -4 -10 -3 0 -8 5
-11 10 -3 6 -1 10 4 10 6 0 11 -4 11 -10z m716 -25 c-3 -23 -12 -26 -13 -5 -1
11 2 20 7 20 4 0 7 -7 6 -15z m125 2 c-6 -8 -7 -18 -3 -22 4 -5 1 -5 -6 -1
-10 6 -10 11 -1 22 6 8 14 14 16 14 3 0 0 -6 -6 -13z m-641 -17 c0 -5 -5 -10
-11 -10 -5 0 -7 5 -4 10 3 6 8 10 11 10 2 0 4 -4 4 -10z m360 0 c0 -5 -5 -10
-11 -10 -5 0 -7 5 -4 10 3 6 8 10 11 10 2 0 4 -4 4 -10z m194 2 c3 -5 -1 -9
-9 -9 -8 0 -12 4 -9 9 3 4 7 8 9 8 2 0 6 -4 9 -8z m50 0 c3 -5 -1 -9 -9 -9 -8
0 -12 4 -9 9 3 4 7 8 9 8 2 0 6 -4 9 -8z m-1364 -22 c0 -5 -5 -10 -11 -10 -5
0 -7 5 -4 10 3 6 8 10 11 10 2 0 4 -4 4 -10z m854 -6 c3 -8 2 -12 -4 -9 -6 3
-10 10 -10 16 0 14 7 11 14 -7z m170 8 c3 -5 -1 -9 -9 -9 -8 0 -12 4 -9 9 3 4
7 8 9 8 2 0 6 -4 9 -8z m-129 -11 c3 -5 2 -12 -3 -15 -5 -3 -9 1 -9 9 0 17 3
19 12 6z m65 -11 c0 -5 -2 -10 -4 -10 -3 0 -8 5 -11 10 -3 6 -1 10 4 10 6 0
11 -4 11 -10z m115 0 c3 -5 1 -10 -4 -10 -6 0 -11 5 -11 10 0 6 2 10 4 10 3 0
8 -4 11 -10z m845 -40 c0 -5 -5 -10 -11 -10 -5 0 -7 5 -4 10 3 6 8 10 11 10 2
0 4 -4 4 -10z m-1685 -40 c3 -5 1 -10 -4 -10 -6 0 -11 5 -11 10 0 6 2 10 4 10
3 0 8 -4 11 -10z m1525 -16 c0 -8 -19 -13 -24 -6 -3 5 1 9 9 9 8 0 15 -2 15
-3z m-40 -18 c0 -3 -4 -8 -10 -11 -5 -3 -10 -1 -10 4 0 6 5 11 10 11 6 0 10
-2 10 -4z m-1259 -23 c13 -16 12 -17 -3 -4 -10 7 -18 15 -18 17 0 8 8 3 21
-13z m1329 1 c0 -8 -19 -13 -24 -6 -3 5 1 9 9 9 8 0 15 -2 15 -3z m-1275 -24
c3 -5 1 -10 -4 -10 -6 0 -11 5 -11 10 0 6 2 10 4 10 3 0 8 -4 11 -10z m60 1
c-9 -8 -36 -10 -30 -2 2 4 11 8 20 8 8 0 13 -3 10 -6z m1005 -21 c0 -5 -5 -10
-11 -10 -5 0 -7 5 -4 10 3 6 8 10 11 10 2 0 4 -4 4 -10z m-943 -25 c0 -8 -4
-12 -9 -9 -5 3 -6 10 -3 15 9 13 12 11 12 -6z m783 1 c0 -2 -8 -10 -17 -17
-16 -13 -17 -12 -4 4 13 16 21 21 21 13z m-665 -25 c3 -5 2 -12 -3 -15 -5 -3
-9 1 -9 9 0 17 3 19 12 6z m45 -5 c0 -3 -4 -8 -10 -11 -5 -3 -10 -1 -10 4 0 6
5 11 10 11 6 0 10 -2 10 -4z m160 -6 c0 -5 -2 -10 -4 -10 -3 0 -8 5 -11 10 -3
6 -1 10 4 10 6 0 11 -4 11 -10z m400 0 c0 -5 -5 -10 -11 -10 -5 0 -7 5 -4 10
3 6 8 10 11 10 2 0 4 -4 4 -10z m-320 -34 c0 -3 -4 -8 -10 -11 -5 -3 -10 -1
-10 4 0 6 5 11 10 11 6 0 10 -2 10 -4z"/>
<path d="M90 9839 c-19 -4 -36 -12 -38 -18 -2 -6 -11 -11 -19 -11 -13 0 -13
-3 -3 -15 7 -8 16 -13 20 -10 5 3 11 1 14 -4 7 -11 -13 -9 -32 2 -16 11 -24
-12 -20 -59 2 -28 7 -38 18 -36 12 3 12 1 3 -9 -9 -9 -9 -19 2 -46 8 -18 14
-36 14 -38 0 -19 27 -91 36 -97 6 -5 6 -8 -2 -8 -20 0 24 -65 53 -78 20 -10
24 -10 18 0 -4 7 3 4 15 -7 26 -22 30 -23 42 -3 7 11 9 11 9 -1 0 -11 3 -11
15 -1 8 7 15 8 15 3 0 -6 18 -9 40 -8 22 1 59 -1 83 -5 50 -7 70 -3 61 13 -3
7 2 3 10 -7 9 -11 19 -17 22 -13 4 3 15 2 25 -4 14 -7 19 -6 19 2 0 8 4 8 15
-1 8 -6 19 -9 24 -6 5 4 13 2 16 -4 5 -8 11 -8 19 -1 7 6 16 8 20 4 7 -8 13
-9 71 -18 22 -4 47 -9 55 -12 33 -13 51 -13 45 -1 -4 7 1 4 9 -6 9 -11 19 -17
22 -13 4 3 13 -1 21 -9 8 -8 18 -12 23 -9 5 3 12 0 16 -6 4 -7 3 -9 -3 -6 -6
4 -12 -3 -14 -16 -2 -12 -4 -1523 -3 -3357 1 -3417 0 -3396 36 -3374 6 4 8 3
5 -3 -8 -13 15 -34 40 -35 10 0 61 3 113 7 52 4 116 8 142 8 27 1 48 6 48 10
0 5 5 5 10 2 6 -4 43 -8 83 -10 40 -1 95 -6 124 -10 28 -4 60 -5 70 -1 10 4
19 6 20 4 0 -2 12 11 24 27 13 17 34 41 46 54 12 14 20 28 18 32 -3 4 2 9 10
13 8 3 15 10 15 16 0 6 -5 8 -12 4 -7 -4 -8 -3 -4 5 4 6 12 9 17 6 5 -4 12 2
16 12 4 10 15 24 25 31 10 7 18 19 18 26 0 7 9 21 20 31 11 10 18 20 16 22 -2
3 3 13 12 23 51 55 61 68 64 81 2 8 11 20 21 27 9 7 15 18 12 23 -4 5 -1 9 4
9 6 0 11 7 11 16 0 8 5 12 10 9 6 -3 10 -1 10 5 0 12 14 31 42 57 9 9 15 20
12 25 -3 4 0 8 6 8 7 0 9 7 6 16 -3 8 -2 12 3 9 6 -3 18 8 27 25 10 16 22 30
25 30 4 0 11 9 14 20 4 12 16 30 28 40 11 11 17 20 12 20 -4 0 6 13 22 29 24
22 28 32 19 42 -6 6 -6 9 -1 6 6 -3 20 6 30 19 11 14 28 34 37 45 10 10 18 22
18 25 0 3 11 20 26 36 14 17 23 37 20 45 -3 8 -2 12 3 9 5 -3 14 1 21 9 10 12
10 19 -1 33 -11 14 -11 15 1 5 18 -17 30 -16 30 1 0 8 5 16 10 18 6 2 12 13
13 25 0 12 4 20 8 17 9 -5 60 62 52 70 -4 3 1 6 11 6 9 0 14 5 11 10 -4 6 -11
7 -17 4 -7 -4 -8 -2 -4 5 4 6 11 9 16 6 5 -3 21 13 37 35 15 23 36 50 46 62 9
12 17 25 17 30 0 5 5 6 12 2 8 -5 9 0 6 14 -4 12 -2 20 2 17 5 -3 17 7 27 22
9 15 37 54 61 86 24 32 40 62 36 69 -4 7 -3 8 4 4 6 -4 16 4 23 16 7 13 15 25
18 28 19 14 49 68 43 75 -4 5 -1 5 6 1 7 -4 15 0 19 11 3 10 15 28 26 41 11
12 17 22 14 22 -4 0 1 8 11 18 29 32 48 57 55 75 3 9 11 17 17 17 5 0 10 5 10
10 0 6 5 16 10 23 6 7 29 37 51 67 21 30 46 64 54 75 8 10 15 23 15 28 0 4 5
5 12 1 6 -4 8 -3 4 4 -3 6 -2 13 4 17 6 4 8 11 4 16 -3 5 0 8 8 7 7 -2 12 5
12 15 -1 9 3 17 10 17 9 0 62 71 58 78 -1 1 6 10 16 21 58 62 97 124 58 92
-11 -9 -16 -9 -22 0 -4 7 -3 9 4 5 6 -3 13 -2 17 4 4 6 11 8 16 4 6 -3 13 3
16 15 3 11 9 19 13 16 11 -7 22 24 13 37 -3 6 -2 8 3 5 6 -3 14 -3 19 1 18 13
45 69 37 77 -4 5 -2 5 4 2 15 -9 47 40 38 56 -4 7 -4 9 1 5 9 -8 35 15 35 32
0 6 5 8 10 5 6 -3 10 -1 10 5 0 6 14 28 30 49 21 25 29 44 24 57 -4 14 -3 15
4 6 7 -11 14 -7 31 17 12 17 20 31 17 31 -3 0 5 10 17 23 12 13 29 34 37 46 8
13 23 34 33 46 9 13 17 29 17 36 0 7 3 9 7 6 4 -4 18 13 33 38 15 25 29 42 33
38 4 -3 7 -1 7 5 0 10 54 92 85 129 5 7 16 19 23 27 6 8 12 19 12 24 0 5 11
22 25 38 40 46 45 53 45 63 0 6 6 14 14 18 15 9 41 54 38 66 -1 5 2 6 7 2 9
-5 29 20 29 38 0 5 4 12 8 15 4 4 4 0 0 -8 -4 -8 0 -6 8 5 9 11 22 27 29 35 7
8 12 17 12 20 0 3 13 22 29 43 25 32 27 39 15 55 -13 15 -12 16 4 3 12 -9 17
-10 17 -2 0 7 5 9 10 6 6 -3 10 0 10 8 0 12 9 26 50 74 5 7 7 20 4 30 -5 14
-4 15 4 4 7 -10 16 -3 37 33 15 25 32 46 38 46 6 0 7 3 4 7 -4 3 1 12 11 19 9
7 17 16 17 21 0 5 10 19 22 32 17 19 20 28 11 38 -8 10 -8 12 3 8 9 -3 26 10
44 36 17 22 40 54 53 70 13 16 21 33 18 38 -4 5 -1 13 5 17 8 5 10 2 5 -7 -4
-8 -1 -5 8 5 8 10 13 23 9 29 -3 6 -1 7 4 4 6 -4 18 5 28 19 13 21 14 28 4 42
-11 14 -11 15 0 5 14 -12 44 -6 36 7 -3 5 6 21 20 36 14 15 35 42 46 61 11 18
25 33 30 33 6 0 7 5 4 10 -3 6 -1 10 4 10 6 0 11 6 11 14 0 8 7 17 16 20 8 3
12 10 9 16 -3 6 1 13 9 16 9 3 16 12 16 20 0 7 6 17 14 21 15 9 41 54 38 65
-1 5 4 7 11 5 6 -1 11 4 10 11 -2 6 4 12 13 12 8 0 13 4 9 9 -3 5 0 13 6 16 5
4 8 13 5 21 -3 7 0 11 7 9 7 -3 22 11 35 31 20 30 21 38 10 52 -11 15 -11 15
4 4 14 -11 19 -8 39 20 13 18 27 35 31 36 5 2 6 8 3 12 -3 5 5 16 17 24 12 9
19 16 15 16 -5 0 -2 6 5 14 7 8 38 49 68 91 30 42 63 87 73 99 11 11 25 33 33
49 8 15 18 27 23 27 5 0 12 11 15 25 4 14 11 25 16 25 6 0 10 4 10 9 0 6 13
25 30 43 16 18 30 36 30 41 0 5 6 15 13 22 27 31 37 44 37 51 0 4 12 17 26 30
14 14 26 33 27 43 1 11 5 17 11 14 5 -4 7 1 3 10 -4 11 -2 14 9 10 7 -3 14 0
14 6 0 7 9 21 20 33 25 27 26 45 3 27 -16 -13 -17 -12 -4 3 7 10 16 16 20 13
8 -4 41 30 41 43 0 4 13 23 30 42 21 25 26 36 17 42 -9 6 -9 8 1 8 14 0 47 29
47 40 0 4 7 14 15 23 32 35 39 45 33 51 -4 3 -1 6 6 6 8 0 11 7 7 15 -3 8 -2
14 2 14 17 -3 35 2 29 7 -3 4 -1 12 6 20 34 38 39 47 34 65 -4 15 -2 17 6 11
13 -11 41 11 30 22 -4 3 -1 6 5 6 7 0 12 9 12 21 0 11 4 18 8 15 4 -3 19 13
32 35 14 21 28 39 33 39 4 0 5 5 2 10 -3 6 1 10 10 10 9 0 14 4 11 8 -3 5 4
18 14 30 11 12 20 28 20 37 0 10 5 13 12 9 8 -5 9 -2 5 10 -4 9 -3 15 2 11 6
-3 18 8 27 25 10 16 22 30 27 30 4 0 6 4 2 9 -3 5 4 16 15 24 11 7 17 17 13
20 -3 4 -1 7 5 7 7 0 12 6 12 14 0 8 7 17 16 20 9 4 14 9 12 12 -3 3 7 19 23
37 16 17 27 33 25 35 -2 2 7 15 20 29 13 14 21 29 18 34 -3 5 2 9 11 9 11 0
15 5 11 15 -3 9 0 15 9 15 8 0 15 4 15 9 0 5 12 23 26 40 23 27 24 34 13 49
-13 15 -12 16 4 3 15 -12 17 -11 17 3 0 10 4 15 9 11 5 -3 12 4 16 15 3 11 11
20 17 20 5 0 7 7 4 16 -3 8 -2 13 3 10 5 -3 16 6 26 20 14 21 14 28 3 42 -12
15 -11 16 5 3 16 -13 19 -12 24 7 3 12 9 19 14 16 5 -3 9 0 9 6 0 6 9 21 20
32 15 17 17 24 8 30 -9 5 -8 8 5 8 10 0 20 6 23 14 3 8 19 20 35 26 17 7 26
17 22 24 -4 6 0 5 9 -2 14 -11 20 -9 39 10 12 13 18 17 14 9 -11 -19 56 -4 73
17 7 9 12 11 12 4 0 -7 7 -12 16 -12 10 0 14 6 11 15 -4 8 -1 17 6 21 7 4 9 4
5 -1 -12 -13 13 -37 26 -26 7 6 29 11 49 13 20 1 37 7 37 13 0 5 4 4 9 -4 5
-7 13 -11 18 -8 5 3 38 9 74 12 85 8 97 10 105 18 4 4 13 2 21 -4 10 -9 13 -8
13 2 0 9 3 10 8 4 9 -13 42 -15 42 -3 0 6 6 5 15 -2 12 -10 15 -10 15 1 0 12
2 12 9 0 7 -11 9 -11 14 0 4 9 6 10 6 2 1 -7 8 -10 16 -7 8 4 12 11 8 18 -4 6
1 5 10 -3 12 -9 17 -10 17 -2 0 7 4 10 8 7 5 -3 15 6 22 19 7 14 17 25 22 25
5 0 6 5 3 10 -4 6 -2 16 3 23 7 10 21 49 26 77 1 3 5 11 9 17 5 7 10 21 12 30
2 10 10 39 18 64 17 54 16 97 -2 108 -7 5 -13 12 -12 17 0 5 -7 8 -14 8 -8 -1
-12 2 -9 7 5 9 2 10 -33 13 -10 1 -23 5 -30 9 -6 4 -14 4 -17 -1 -3 -5 -46 -8
-96 -8 -51 1 -92 -3 -94 -9 -3 -6 -5 -6 -5 1 -1 13 -63 5 -73 -10 -5 -7 -8 -7
-8 -1 0 12 -139 13 -158 1 -7 -4 -12 -2 -12 4 0 6 -4 9 -9 6 -5 -4 -28 -7 -50
-8 -23 -1 -41 -6 -41 -12 0 -7 -3 -7 -8 -1 -11 16 -76 12 -90 -5 -10 -13 -11
-13 -6 4 6 16 5 17 -16 6 -12 -7 -20 -8 -17 -3 3 4 -21 8 -53 8 -36 0 -56 -4
-53 -10 3 -5 0 -5 -7 2 -9 9 -19 9 -33 2 -11 -6 -17 -7 -14 -2 3 4 -21 8 -53
8 -36 0 -56 -4 -53 -10 3 -5 0 -5 -7 2 -9 9 -19 9 -33 2 -11 -6 -17 -7 -14 -2
3 4 -21 8 -53 8 -36 0 -56 -4 -53 -10 3 -5 0 -5 -7 2 -9 9 -19 9 -33 2 -11 -6
-17 -7 -14 -2 3 4 -34 9 -81 10 -48 1 -130 4 -182 6 -52 2 -105 0 -118 -5 -15
-5 -21 -4 -17 2 4 6 -16 10 -52 10 -112 1 -224 8 -230 14 -3 3 -12 1 -20 -5
-7 -6 -13 -8 -13 -5 0 4 -10 1 -22 -6 -13 -7 -26 -11 -30 -10 -13 3 -9 -23 5
-38 10 -12 9 -12 -5 -1 -28 21 -38 -21 -21 -84 8 -27 16 -58 18 -68 10 -44 17
-57 28 -51 9 5 9 4 1 -5 -9 -9 -9 -20 -1 -42 6 -16 15 -29 19 -29 3 0 5 -11 2
-25 -3 -19 0 -25 12 -25 10 0 15 -3 11 -6 -7 -7 24 -44 36 -44 5 0 3 8 -4 18
-13 16 -13 16 6 0 24 -20 95 -31 95 -14 0 7 3 8 8 1 8 -13 22 -13 41 -1 8 5
12 5 9 0 -4 -5 13 -10 35 -11 23 0 67 -4 97 -7 30 -4 79 -7 107 -9 29 -1 53
-4 53 -7 0 -6 13 -8 77 -12 24 -2 43 -7 43 -12 0 -4 7 -6 15 -3 8 4 17 1 21
-5 4 -7 9 -6 15 3 7 11 9 10 9 -4 0 -10 5 -15 10 -12 16 10 12 -12 -6 -29 -8
-9 -12 -21 -8 -27 4 -7 3 -9 -3 -6 -13 8 -46 -40 -38 -53 3 -5 0 -7 -7 -5 -8
3 -21 -9 -32 -30 -11 -19 -23 -35 -28 -35 -4 0 -8 -5 -8 -10 0 -6 -5 -16 -10
-23 -6 -7 -24 -28 -40 -47 -17 -19 -28 -43 -26 -52 2 -11 -1 -15 -10 -11 -14
5 -20 -12 -6 -20 4 -2 2 -2 -5 -1 -11 3 -27 -13 -28 -26 0 -13 -32 -49 -38
-44 -4 4 -5 -3 -2 -14 3 -16 0 -19 -12 -15 -11 4 -14 2 -9 -5 4 -7 2 -12 -5
-12 -7 0 -10 -3 -6 -6 3 -3 -6 -17 -20 -30 -14 -13 -22 -28 -17 -35 4 -8 3 -9
-4 -5 -7 4 -12 4 -12 -1 0 -7 -66 -101 -97 -138 -32 -38 -53 -76 -48 -85 4 -6
-1 -7 -11 -3 -11 4 -15 3 -10 -5 3 -6 0 -14 -7 -19 -8 -4 -22 -21 -33 -38 -10
-16 -25 -36 -32 -44 -10 -11 -10 -16 0 -29 11 -13 11 -14 0 -8 -15 9 -52 -20
-52 -40 0 -7 -6 -14 -12 -17 -10 -3 -9 -8 2 -23 13 -17 13 -18 0 -7 -19 14
-30 7 -50 -31 -8 -16 -27 -42 -41 -57 -15 -16 -25 -30 -22 -32 2 -2 -3 -10
-12 -17 -8 -7 -15 -18 -15 -25 0 -7 -7 -16 -16 -19 -8 -3 -12 -10 -9 -16 3 -5
2 -10 -2 -10 -19 0 -135 -169 -126 -183 2 -4 0 -6 -7 -5 -6 2 -18 -10 -28 -27
-9 -16 -25 -38 -35 -47 -11 -10 -16 -22 -11 -29 4 -7 3 -9 -3 -6 -5 3 -17 -3
-26 -14 -9 -10 -14 -19 -11 -19 4 0 1 -6 -5 -13 -6 -8 -8 -17 -4 -21 4 -4 -1
-4 -12 0 -18 7 -19 6 -6 -10 8 -9 10 -16 5 -15 -21 4 -34 -2 -34 -14 0 -8 -9
-22 -21 -33 -11 -10 -18 -26 -16 -35 3 -11 0 -16 -7 -13 -19 7 -37 -40 -23
-57 10 -10 8 -10 -6 0 -15 12 -20 11 -32 -5 -8 -10 -15 -22 -15 -26 0 -5 0
-10 0 -13 0 -2 -16 -20 -36 -39 -20 -19 -35 -37 -34 -41 1 -4 -7 -18 -19 -31
-12 -13 -21 -28 -21 -33 0 -5 -4 -11 -8 -13 -5 -1 -28 -32 -53 -68 -24 -36
-50 -69 -58 -74 -11 -7 -11 -10 0 -17 12 -7 11 -9 -1 -9 -8 0 -31 -23 -50 -51
-19 -28 -41 -57 -48 -65 -12 -12 -12 -17 0 -32 12 -15 11 -16 -4 -4 -14 11
-18 10 -27 -6 -6 -11 -7 -22 -3 -26 3 -4 -2 -4 -13 0 -20 7 -20 7 0 -17 11
-13 13 -18 5 -11 -12 10 -19 7 -42 -20 -15 -18 -28 -36 -28 -40 0 -7 -12 -22
-55 -72 -21 -24 -35 -57 -30 -66 3 -6 0 -7 -8 -4 -15 6 -31 -22 -21 -37 3 -5
0 -8 -7 -7 -7 2 -18 -7 -24 -19 -7 -13 -15 -20 -20 -15 -4 4 -5 -1 -2 -10 4
-12 1 -18 -7 -18 -13 0 -19 -9 -26 -35 -2 -5 -11 -16 -22 -24 -11 -7 -17 -20
-14 -28 3 -8 2 -11 -4 -8 -13 8 -33 -33 -26 -52 5 -13 4 -14 -9 -3 -9 8 -15 8
-15 2 0 -6 -7 -18 -16 -27 -14 -13 -14 -18 -2 -33 12 -15 11 -16 -5 -3 -16 13
-19 12 -24 -7 -3 -12 -10 -19 -16 -15 -6 3 -7 1 -3 -5 3 -6 -5 -22 -19 -36
-14 -14 -25 -30 -25 -36 0 -6 -5 -8 -12 -4 -6 4 -8 3 -4 -4 3 -6 -2 -17 -12
-24 -11 -7 -18 -21 -16 -31 2 -12 -2 -17 -12 -13 -7 3 -13 2 -13 -2 3 -19 -14
-51 -24 -45 -6 4 -8 0 -4 -10 4 -10 2 -16 -6 -14 -7 1 -11 -6 -11 -15 1 -10
-1 -17 -5 -16 -18 2 -32 -3 -27 -11 3 -4 -3 -16 -14 -26 -11 -10 -17 -21 -15
-25 3 -4 -2 -11 -11 -14 -9 -4 -14 -9 -10 -13 3 -3 -3 -12 -14 -20 -11 -8 -20
-19 -20 -25 0 -6 -10 -19 -22 -29 -11 -11 -18 -19 -14 -19 4 0 1 -7 -7 -15 -8
-8 -25 -30 -37 -50 -12 -19 -26 -35 -31 -35 -6 0 -8 -4 -5 -9 3 -4 -3 -16 -14
-26 -21 -19 -28 -41 -8 -29 7 4 8 3 4 -5 -4 -6 -11 -9 -15 -6 -5 2 -23 -17
-42 -43 -18 -26 -38 -50 -43 -54 -6 -4 -8 -8 -4 -8 4 0 -4 -12 -18 -27 -15
-17 -22 -33 -18 -45 3 -10 0 -18 -6 -18 -6 0 -8 5 -5 10 3 6 1 10 -4 10 -6 0
-11 -4 -11 -10 0 -5 -16 -32 -35 -59 -19 -26 -35 -54 -35 -60 0 -7 -4 -10 -9
-7 -5 4 -15 -7 -22 -23 -7 -16 -17 -27 -21 -25 -4 3 -8 -1 -8 -8 0 -8 -13 -29
-30 -48 -30 -36 -39 -57 -18 -44 7 4 8 3 4 -5 -4 -6 -11 -9 -16 -6 -4 3 -18
-11 -30 -30 -12 -19 -26 -35 -32 -35 -6 0 -8 -9 -5 -19 3 -15 1 -18 -11 -14
-12 5 -14 1 -10 -15 4 -16 2 -19 -10 -15 -9 4 -13 2 -9 -4 4 -6 0 -14 -9 -17
-8 -3 -13 -10 -10 -15 3 -5 -1 -12 -10 -15 -9 -3 -14 -13 -10 -21 3 -8 0 -17
-6 -21 -7 -4 -8 -3 -4 4 4 7 2 12 -5 12 -6 0 -9 -8 -6 -20 3 -10 2 -19 -2 -18
-20 2 -31 -4 -31 -17 0 -8 -5 -15 -12 -15 -6 0 -9 -3 -5 -6 3 -4 -1 -13 -9
-21 -8 -8 -11 -20 -7 -26 3 -7 3 -9 -2 -5 -8 8 -35 -15 -35 -30 0 -5 -7 -15
-15 -22 -8 -6 -43 -53 -77 -102 -35 -50 -72 -99 -83 -111 -12 -11 -14 -17 -5
-13 13 6 13 5 0 -6 -20 -17 -70 -83 -70 -92 0 -4 6 -4 13 0 7 4 9 3 4 -2 -5
-5 -12 -9 -16 -9 -11 0 -61 -61 -61 -74 0 -6 -4 -11 -10 -11 -5 0 -10 -4 -10
-10 0 -10 -21 -39 -57 -77 -13 -13 -23 -28 -23 -33 0 -9 -19 -36 -48 -65 -6
-8 -12 -16 -12 -20 0 -4 -6 -13 -12 -20 -34 -38 -39 -47 -34 -60 3 -10 0 -12
-12 -8 -9 3 -14 3 -11 -1 4 -4 -4 -19 -18 -34 -14 -15 -37 -45 -51 -67 -14
-22 -31 -46 -39 -54 -8 -7 -12 -20 -9 -27 3 -7 0 -16 -6 -20 -7 -4 -8 -3 -4 4
4 7 3 12 -2 12 -17 0 -22 -13 -10 -27 7 -9 7 -13 1 -11 -6 2 -22 -9 -36 -25
-14 -15 -23 -27 -19 -27 4 0 -1 -7 -12 -15 -10 -7 -15 -18 -11 -24 3 -6 -1
-11 -10 -11 -11 0 -15 -5 -11 -16 4 -10 2 -13 -6 -8 -8 5 -9 2 -5 -10 4 -10 3
-15 -3 -11 -6 3 -10 1 -10 -5 0 -6 -4 -8 -10 -5 -5 3 -10 -1 -10 -9 0 -9 -5
-16 -12 -16 -6 0 -8 -3 -5 -6 4 -4 -3 -15 -14 -25 -13 -11 -19 -25 -15 -34 3
-9 2 -14 -3 -11 -13 9 -34 -21 -25 -36 4 -7 4 -10 -1 -6 -4 4 -14 3 -22 -3
-16 -14 -18 -33 -1 -23 7 4 8 3 4 -5 -4 -6 -11 -9 -16 -6 -4 3 -17 -10 -29
-28 -11 -18 -29 -44 -41 -57 -11 -13 -18 -29 -16 -36 3 -7 0 -11 -7 -9 -7 3
-23 -12 -37 -33 -32 -47 -36 -57 -20 -47 9 5 11 4 6 -4 -4 -6 -11 -9 -15 -7
-11 7 -53 -52 -46 -64 3 -5 -1 -7 -9 -4 -11 4 -14 0 -11 -15 3 -15 0 -18 -12
-14 -11 4 -14 2 -9 -5 4 -7 1 -15 -8 -18 -9 -3 -16 -10 -16 -16 0 -5 -7 -16
-15 -24 -21 -21 -19 -34 5 -29 11 2 18 0 15 -5 -3 -5 -17 -7 -30 -4 -14 2 -25
1 -25 -3 0 -5 -18 -32 -40 -60 -22 -29 -34 -53 -27 -54 6 0 2 -4 -11 -10 -13
-5 -21 -13 -18 -18 3 -5 0 -11 -8 -14 -11 -4 -13 20 -12 133 0 80 -3 136 -8
133 -5 -4 -6 0 -1 7 11 18 12 319 1 313 -5 -4 -5 0 -1 8 12 19 13 959 1 951
-5 -3 -6 1 -1 8 12 19 12 2240 1 2233 -5 -4 -5 0 -1 8 13 20 13 959 0 951 -6
-4 -6 0 0 9 7 9 10 247 10 716 -2 762 -5 709 50 719 44 7 111 26 129 35 14 8
16 7 11 -2 -5 -8 -4 -10 3 -5 6 4 28 9 49 12 21 2 49 7 63 10 14 3 41 6 60 7
19 2 41 6 49 11 10 6 12 5 7 -3 -6 -8 -1 -10 16 -6 12 3 44 7 70 8 27 1 48 6
48 11 0 5 7 3 15 -4 12 -10 15 -10 15 1 0 9 3 10 8 4 9 -13 35 -18 27 -5 -3 5
-1 10 4 10 6 0 11 -4 11 -10 0 -6 9 -6 26 1 15 5 29 7 32 4 3 -2 16 8 30 23
14 15 31 26 36 24 6 -2 8 -1 4 3 -4 4 -3 17 2 30 6 15 4 27 -3 34 -9 9 -8 11
3 6 10 -4 16 1 17 13 1 10 10 44 21 75 11 31 18 57 15 57 -3 0 0 7 7 15 7 9
10 18 7 21 -3 3 -2 17 3 30 6 16 5 27 -3 36 -7 7 -16 21 -20 31 -7 19 -53 41
-68 31 -5 -3 -9 0 -9 7 0 9 -3 9 -14 0 -10 -9 -16 -9 -21 -1 -4 7 -11 7 -18 2
-7 -5 -60 -8 -119 -8 -60 1 -108 -3 -108 -7 0 -5 -5 -5 -10 -2 -6 4 -17 2 -25
-5 -7 -6 -16 -7 -18 -3 -6 10 -98 9 -115 0 -5 -4 -13 -1 -16 5 -5 10 -7 10
-12 1 -4 -9 -11 -10 -23 -3 -10 5 -21 6 -25 3 -10 -11 -46 -11 -46 0 0 6 -5 6
-12 1 -7 -5 -38 -9 -68 -9 -30 0 -58 -4 -62 -10 -5 -7 -8 -7 -8 0 0 7 -135 10
-387 9 -214 -1 -405 2 -425 6 -22 5 -36 4 -32 -1 7 -12 -7 -11 -25 0 -9 6 -22
6 -33 0 -11 -6 -18 -6 -18 0 0 12 -33 9 -42 -4 -5 -7 -11 -6 -15 1 -9 12 -102
12 -120 1 -7 -5 -13 -4 -13 0 0 5 -11 10 -25 11 -14 1 -25 -4 -25 -11 0 -8 -3
-9 -8 -1 -9 14 -52 25 -52 12 0 -5 -5 -6 -12 -2 -14 9 -124 8 -139 -2 -8 -5
-9 -3 -4 5 5 9 2 12 -11 9 -11 -2 -18 -10 -16 -17 1 -7 -2 -10 -8 -6 -6 3 -8
10 -5 15 9 14 -8 17 -45 9z m5290 -15 c0 -8 -19 -13 -24 -6 -3 5 1 9 9 9 8 0
15 -2 15 -3z m1447 -19 c0 -8 -4 -12 -9 -9 -5 3 -6 10 -3 15 9 13 12 11 12 -6z
m118 6 c3 -5 2 -12 -3 -15 -5 -3 -9 1 -9 9 0 17 3 19 12 6z m-6282 -16 c4 -8
3 -16 -1 -19 -4 -3 -9 4 -9 15 -2 23 3 25 10 4z m1200 0 c4 -8 3 -16 -1 -19
-4 -3 -9 4 -9 15 -2 23 3 25 10 4z m191 7 c3 -5 -1 -9 -9 -9 -8 0 -12 4 -9 9
3 4 7 8 9 8 2 0 6 -4 9 -8z m193 -7 c0 -8 -4 -12 -9 -9 -4 3 -8 9 -8 15 0 5 4
9 8 9 5 0 9 -7 9 -15z m3563 5 c0 -5 -5 -10 -11 -10 -5 0 -7 5 -4 10 3 6 8 10
11 10 2 0 4 -4 4 -10z m-5103 -15 c0 -8 -4 -12 -9 -9 -5 3 -6 10 -3 15 9 13
12 11 12 -6z m6038 3 c5 4 5 1 1 -6 -6 -10 -11 -10 -22 -1 -8 6 -14 14 -14 16
0 3 6 0 13 -6 8 -6 18 -7 22 -3z m-6635 -8 c0 -5 -2 -10 -4 -10 -3 0 -8 5 -11
10 -3 6 -1 10 4 10 6 0 11 -4 11 -10z m80 0 c0 -5 -2 -10 -4 -10 -3 0 -8 5
-11 10 -3 6 -1 10 4 10 6 0 11 -4 11 -10z m176 -2 c3 -4 -1 -5 -10 -4 -8 1
-18 5 -22 8 -3 4 1 5 10 4 8 -1 18 -5 22 -8z m139 2 c3 -5 1 -10 -4 -10 -6 0
-11 5 -11 10 0 6 2 10 4 10 3 0 8 -4 11 -10z m325 0 c0 -5 -5 -10 -11 -10 -5
0 -7 5 -4 10 3 6 8 10 11 10 2 0 4 -4 4 -10z m276 -16 c1 -9 0 -13 -4 -10 -3
4 -7 14 -8 22 -1 9 0 13 4 10 3 -4 7 -14 8 -22z m704 11 c0 -2 -9 -3 -19 -2
-11 0 -18 5 -15 9 4 6 34 0 34 -7z m495 -16 c1 -11 -1 -22 -5 -24 -3 -2 -6 9
-6 25 0 33 9 32 11 -1z m3079 23 c3 -5 -1 -9 -9 -9 -8 0 -12 4 -9 9 3 4 7 8 9
8 2 0 6 -4 9 -8z m46 -2 c0 -5 -2 -10 -4 -10 -3 0 -8 5 -11 10 -3 6 -1 10 4
10 6 0 11 -4 11 -10z m115 1 c-8 -7 -45 -9 -50 -1 -2 3 9 6 25 6 17 0 27 -2
25 -5z m485 5 c0 -3 -4 -8 -10 -11 -5 -3 -10 -1 -10 4 0 6 5 11 10 11 6 0 10
-2 10 -4z m160 0 c0 -3 -4 -8 -10 -11 -5 -3 -10 -1 -10 4 0 6 5 11 10 11 6 0
10 -2 10 -4z m160 0 c0 -3 -4 -8 -10 -11 -5 -3 -10 -1 -10 4 0 6 5 11 10 11 6
0 10 -2 10 -4z m160 0 c0 -3 -4 -8 -10 -11 -5 -3 -10 -1 -10 4 0 6 5 11 10 11
6 0 10 -2 10 -4z m74 -4 c3 -5 -1 -9 -9 -9 -8 0 -12 4 -9 9 3 4 7 8 9 8 2 0 6
-4 9 -8z m450 0 c3 -5 -1 -9 -9 -9 -8 0 -12 4 -9 9 3 4 7 8 9 8 2 0 6 -4 9 -8z
m76 -2 c0 -5 -2 -10 -4 -10 -3 0 -8 5 -11 10 -3 6 -1 10 4 10 6 0 11 -4 11
-10z m-5820 -4 c0 -2 -8 -10 -17 -17 -16 -13 -17 -12 -4 4 13 16 21 21 21 13z
m801 -13 c13 -16 12 -17 -3 -4 -10 7 -18 15 -18 17 0 8 8 3 21 -13z m4840 0
c13 -16 12 -17 -3 -4 -10 7 -18 15 -18 17 0 8 8 3 21 -13z m312 2 c-3 -9 -8
-14 -10 -11 -3 3 -2 9 2 15 9 16 15 13 8 -4z m-6348 -5 c3 -6 -1 -7 -9 -4 -18
7 -21 14 -7 14 6 0 13 -4 16 -10z m340 0 c-3 -5 -12 -10 -18 -10 -7 0 -6 4 3
10 19 12 23 12 15 0z m139 2 c3 -5 -1 -9 -9 -9 -8 0 -12 4 -9 9 3 4 7 8 9 8 2
0 6 -4 9 -8z m766 2 c0 -8 -19 -13 -24 -6 -3 5 1 9 9 9 8 0 15 -2 15 -3z
m3166 -9 c-1 -8 -5 -17 -8 -21 -5 -4 -4 16 1 34 3 9 9 -1 7 -13z m344 11 c0
-3 -4 -8 -10 -11 -5 -3 -10 -1 -10 4 0 6 5 11 10 11 6 0 10 -2 10 -4z m97 -11
c0 -8 -4 -12 -9 -9 -5 3 -6 10 -3 15 9 13 12 11 12 -6z m1123 5 c0 -5 -5 -10
-11 -10 -5 0 -7 5 -4 10 3 6 8 10 11 10 2 0 4 -4 4 -10z m-1605 -9 c3 -5 2
-12 -3 -15 -5 -3 -9 1 -9 9 0 17 3 19 12 6z m-5191 -9 c3 -5 -1 -9 -9 -9 -8 0
-12 4 -9 9 3 4 7 8 9 8 2 0 6 -4 9 -8z m916 2 c0 -8 -19 -13 -24 -6 -3 5 1 9
9 9 8 0 15 -2 15 -3z m480 0 c0 -8 -19 -13 -24 -6 -3 5 1 9 9 9 8 0 15 -2 15
-3z m876 -20 c1 -9 0 -13 -4 -10 -3 4 -7 14 -8 22 -1 9 0 13 4 10 3 -4 7 -14
8 -22z m-12 -62 c3 -5 -1 -9 -9 -9 -8 0 -12 4 -9 9 3 4 7 8 9 8 2 0 6 -4 9 -8z
m-27 -47 c0 -8 -4 -12 -9 -9 -5 3 -6 10 -3 15 9 13 12 11 12 -6z m3023 0 c0
-2 -9 -3 -19 -2 -11 0 -18 5 -15 9 4 6 34 0 34 -7z m1916 3 c3 -4 -1 -5 -10
-4 -8 1 -18 5 -22 8 -3 4 1 5 10 4 8 -1 18 -5 22 -8z m-1901 -27 c3 -5 2 -12
-3 -15 -5 -3 -9 1 -9 9 0 17 3 19 12 6z m1885 -11 c0 -5 -5 -10 -11 -10 -5 0
-7 5 -4 10 3 6 8 10 11 10 2 0 4 -4 4 -10z m-7120 -40 c0 -5 -5 -10 -11 -10
-5 0 -7 5 -4 10 3 6 8 10 11 10 2 0 4 -4 4 -10z m5236 -5 c-1 -8 -5 -17 -8
-21 -5 -4 -4 16 1 34 3 9 9 -1 7 -13z m-3361 -64 c3 -5 2 -12 -3 -15 -5 -3 -9
1 -9 9 0 17 3 19 12 6z m-1785 -7 c0 -8 -19 -13 -24 -6 -3 5 1 9 9 9 8 0 15
-2 15 -3z m27 -9 c0 -8 -4 -12 -9 -9 -5 3 -6 10 -3 15 9 13 12 11 12 -6z
m1898 6 c-9 -8 -36 -10 -30 -2 2 4 11 8 20 8 8 0 13 -3 10 -6z m65 -1 c0 -5
-2 -10 -4 -10 -3 0 -8 5 -11 10 -3 6 -1 10 4 10 6 0 11 -4 11 -10z m3240 6 c0
-3 -4 -8 -10 -11 -5 -3 -10 -1 -10 4 0 6 5 11 10 11 6 0 10 -2 10 -4z m200 -6
c0 -5 -5 -10 -11 -10 -5 0 -7 5 -4 10 3 6 8 10 11 10 2 0 4 -4 4 -10z m1474 2
c2 -4 -5 -9 -17 -9 -17 -2 -19 0 -7 7 18 12 18 12 24 2z m46 -2 c0 -5 -2 -10
-4 -10 -3 0 -8 5 -11 10 -3 6 -1 10 4 10 6 0 11 -4 11 -10z m-6655 -20 c-3 -5
-12 -10 -18 -10 -7 0 -6 4 3 10 19 12 23 12 15 0z m6509 -6 c3 -8 2 -12 -4 -9
-6 3 -10 10 -10 16 0 14 7 11 14 -7z m-6699 -13 c3 -5 2 -12 -3 -15 -5 -3 -9
1 -9 9 0 17 3 19 12 6z m280 -1 c3 -5 1 -10 -4 -10 -6 0 -11 5 -11 10 0 6 2
10 4 10 3 0 8 -4 11 -10z m85 0 c0 -5 -2 -10 -4 -10 -3 0 -8 5 -11 10 -3 6 -1
10 4 10 6 0 11 -4 11 -10z m1080 6 c0 -3 -4 -8 -10 -11 -5 -3 -10 -1 -10 4 0
6 5 11 10 11 6 0 10 -2 10 -4z m235 -5 c3 -5 2 -12 -3 -15 -5 -3 -9 1 -9 9 0
17 3 19 12 6z m80 -1 c3 -5 1 -10 -4 -10 -6 0 -11 5 -11 10 0 6 2 10 4 10 3 0
8 -4 11 -10z m3365 6 c0 -3 -4 -8 -10 -11 -5 -3 -10 -1 -10 4 0 6 5 11 10 11
6 0 10 -2 10 -4z m120 -6 c0 -5 -5 -10 -11 -10 -5 0 -7 5 -4 10 3 6 8 10 11
10 2 0 4 -4 4 -10z m120 0 c0 -5 -5 -10 -11 -10 -5 0 -7 5 -4 10 3 6 8 10 11
10 2 0 4 -4 4 -10z m80 0 c0 -5 -2 -10 -4 -10 -3 0 -8 5 -11 10 -3 6 -1 10 4
10 6 0 11 -4 11 -10z m120 6 c0 -3 -4 -8 -10 -11 -5 -3 -10 -1 -10 4 0 6 5 11
10 11 6 0 10 -2 10 -4z m1035 -6 c3 -5 1 -10 -4 -10 -6 0 -11 5 -11 10 0 6 2
10 4 10 3 0 8 -4 11 -10z m-1120 -19 c3 -5 2 -12 -3 -15 -5 -3 -9 1 -9 9 0 17
3 19 12 6z m121 -17 c1 -9 0 -13 -4 -10 -3 4 -7 14 -8 22 -1 9 0 13 4 10 3 -4
7 -14 8 -22z m599 7 c3 -5 2 -12 -3 -15 -5 -3 -9 1 -9 9 0 17 3 19 12 6z
m-5720 -10 c3 -5 2 -12 -3 -15 -5 -3 -9 1 -9 9 0 17 3 19 12 6z m42 2 c-4 -3
-1 -13 6 -22 11 -14 10 -14 -5 -2 -16 12 -16 31 -1 31 4 0 3 -3 0 -7z m798 -3
c3 -5 1 -10 -4 -10 -6 0 -11 5 -11 10 0 6 2 10 4 10 3 0 8 -4 11 -10z m4245 4
c0 -8 -19 -13 -24 -6 -3 5 1 9 9 9 8 0 15 -2 15 -3z m195 -44 c3 -5 1 -10 -4
-10 -6 0 -11 5 -11 10 0 6 2 10 4 10 3 0 8 -4 11 -10z m398 -15 c-7 -21 -12
-19 -10 4 0 11 5 18 9 15 4 -3 5 -11 1 -19z m-53 -30 c0 -2 -9 -3 -19 -2 -11
0 -18 5 -15 9 4 6 34 0 34 -7z m-383 -30 c0 -8 -4 -12 -9 -9 -5 3 -6 10 -3 15
9 13 12 11 12 -6z m-4557 -5 c0 -5 -2 -10 -4 -10 -3 0 -8 5 -11 10 -3 6 -1 10
4 10 6 0 11 -4 11 -10z m-535 -20 c-3 -5 -12 -10 -18 -10 -7 0 -6 4 3 10 19
12 23 12 15 0z m575 -94 c0 -3 -4 -8 -10 -11 -5 -3 -10 -1 -10 4 0 6 5 11 10
11 6 0 10 -2 10 -4z m-629 -39 c-10 -9 -11 -8 -5 6 3 10 9 15 12 12 3 -3 0
-11 -7 -18z m629 -7 c0 -5 -5 -10 -11 -10 -5 0 -7 5 -4 10 3 6 8 10 11 10 2 0
4 -4 4 -10z m4395 0 c3 -5 1 -10 -4 -10 -6 0 -11 5 -11 10 0 6 2 10 4 10 3 0
8 -4 11 -10z m39 2 c3 -5 -1 -9 -9 -9 -8 0 -12 4 -9 9 3 4 7 8 9 8 2 0 6 -4 9
-8z m280 0 c3 -5 -1 -9 -9 -9 -8 0 -12 4 -9 9 3 4 7 8 9 8 2 0 6 -4 9 -8z
m-5289 -22 c-3 -5 -12 -10 -18 -10 -7 0 -6 4 3 10 19 12 23 12 15 0z m4930
-20 c3 -5 1 -10 -4 -10 -6 0 -11 5 -11 10 0 6 2 10 4 10 3 0 8 -4 11 -10z
m-4360 -39 c3 -5 2 -12 -3 -15 -5 -3 -9 1 -9 9 0 17 3 19 12 6z m9 -39 c3 -5
-1 -9 -9 -9 -8 0 -12 4 -9 9 3 4 7 8 9 8 2 0 6 -4 9 -8z m4313 -7 c0 -8 -4
-12 -9 -9 -5 3 -6 10 -3 15 9 13 12 11 12 -6z m-4917 -31 c0 -8 -19 -13 -24
-6 -3 5 1 9 9 9 8 0 15 -2 15 -3z m595 -3 c-9 -8 -36 -10 -30 -2 2 4 11 8 20
8 8 0 13 -3 10 -6z m-598 -36 c0 -8 -4 -12 -9 -9 -5 3 -6 10 -3 15 9 13 12 11
12 -6z m597 -3 c2 -4 -5 -9 -17 -9 -17 -2 -19 0 -7 7 18 12 18 12 24 2z m4566
-36 c0 -3 -4 -8 -10 -11 -5 -3 -10 -1 -10 4 0 6 5 11 10 11 6 0 10 -2 10 -4z
m-5135 -26 c-3 -5 -12 -10 -18 -10 -7 0 -6 4 3 10 19 12 23 12 15 0z m575 -14
c0 -3 -4 -8 -10 -11 -5 -3 -10 -1 -10 4 0 6 5 11 10 11 6 0 10 -2 10 -4z
m4197 -18 c2 -17 0 -19 -7 -8 -5 8 -6 18 -4 22 8 12 10 10 11 -14z m363 12 c0
-5 -5 -10 -11 -10 -5 0 -7 5 -4 10 3 6 8 10 11 10 2 0 4 -4 4 -10z m-4560 -40
c0 -5 -5 -10 -11 -10 -5 0 -7 5 -4 10 3 6 8 10 11 10 2 0 4 -4 4 -10z m4155 1
c3 -5 2 -12 -3 -15 -5 -3 -9 1 -9 9 0 17 3 19 12 6z m361 -3 c4 -7 4 -10 -1
-6 -4 4 -15 2 -24 -5 -14 -11 -14 -10 -2 6 16 20 18 21 27 5z m-341 -37 c-9
-8 -36 -10 -30 -2 2 4 11 8 20 8 8 0 13 -3 10 -6z m-4180 -40 c3 -5 2 -12 -3
-15 -5 -3 -9 1 -9 9 0 17 3 19 12 6z m4445 -1 c0 -5 -5 -10 -11 -10 -5 0 -7 5
-4 10 3 6 8 10 11 10 2 0 4 -4 4 -10z m-324 -25 c-1 -8 -5 -17 -8 -21 -5 -4
-4 16 1 34 3 9 9 -1 7 -13z m-4112 -13 c3 -5 -1 -9 -9 -9 -8 0 -12 4 -9 9 3 4
7 8 9 8 2 0 6 -4 9 -8z m-633 -35 c-10 -9 -11 -8 -5 6 3 10 9 15 12 12 3 -3 0
-11 -7 -18z m624 -6 c-9 -8 -36 -10 -30 -2 2 4 11 8 20 8 8 0 13 -3 10 -6z
m4085 -1 c0 -5 -2 -10 -4 -10 -3 0 -8 5 -11 10 -3 6 -1 10 4 10 6 0 11 -4 11
-10z m-4655 -20 c-3 -5 -12 -10 -18 -10 -7 0 -6 4 3 10 19 12 23 12 15 0z
m569 -18 c2 -4 -5 -9 -17 -9 -17 -2 -19 0 -7 7 18 12 18 12 24 2z m-14 -37 c0
-7 -30 -13 -34 -7 -3 4 4 9 15 9 10 1 19 0 19 -2z m4360 0 c0 -7 -30 -13 -34
-7 -3 4 4 9 15 9 10 1 19 0 19 -2z m-355 -25 c3 -6 -1 -7 -9 -4 -18 7 -21 14
-7 14 6 0 13 -4 16 -10z m330 -9 c3 -5 2 -12 -3 -15 -5 -3 -9 1 -9 9 0 17 3
19 12 6z m-4340 -10 c-9 -8 -36 -10 -30 -2 2 4 11 8 20 8 8 0 13 -3 10 -6z
m3956 -34 c-10 -9 -11 -8 -5 6 3 10 9 15 12 12 3 -3 0 -11 -7 -18z m-4531 -3
c0 -8 -19 -13 -24 -6 -3 5 1 9 9 9 8 0 15 -2 15 -3z m4837 -33 c0 -11 -5 -18
-9 -15 -4 3 -5 11 -1 19 7 21 12 19 10 -4z m-4840 -6 c0 -8 -4 -12 -9 -9 -5 3
-6 10 -3 15 9 13 12 11 12 -6z m573 -1 c0 -8 -19 -13 -24 -6 -3 5 1 9 9 9 8 0
15 -2 15 -3z m27 -9 c0 -8 -4 -12 -9 -9 -5 3 -6 10 -3 15 9 13 12 11 12 -6z
m3918 -34 c-9 -8 -36 -10 -30 -2 2 4 11 8 20 8 8 0 13 -3 10 -6z m320 0 c3 -5
2 -12 -3 -15 -5 -3 -9 1 -9 9 0 17 3 19 12 6z m-4810 -21 c-3 -5 -12 -10 -18
-10 -7 0 -6 4 3 10 19 12 23 12 15 0z m4445 4 c0 -8 -19 -13 -24 -6 -3 5 1 9
9 9 8 0 15 -2 15 -3z m-3870 -18 c0 -3 -4 -8 -10 -11 -5 -3 -10 -1 -10 4 0 6
5 11 10 11 6 0 10 -2 10 -4z m0 -46 c0 -5 -5 -10 -11 -10 -5 0 -7 5 -4 10 3 6
8 10 11 10 2 0 4 -4 4 -10z m4171 -33 c-10 -9 -11 -8 -5 6 3 10 9 15 12 12 3
-3 0 -11 -7 -18z m-56 -7 c3 -5 1 -10 -4 -10 -6 0 -11 5 -11 10 0 6 2 10 4 10
3 0 8 -4 11 -10z m-4120 -39 c3 -5 2 -12 -3 -15 -5 -3 -9 1 -9 9 0 17 3 19 12
6z m9 -39 c3 -5 -1 -9 -9 -9 -8 0 -12 4 -9 9 3 4 7 8 9 8 2 0 6 -4 9 -8z
m3711 -31 c3 -5 2 -12 -3 -15 -5 -3 -9 1 -9 9 0 17 3 19 12 6z m-4315 -7 c0
-8 -19 -13 -24 -6 -3 5 1 9 9 9 8 0 15 -2 15 -3z m595 -3 c-9 -8 -36 -10 -30
-2 2 4 11 8 20 8 8 0 13 -3 10 -6z m-598 -36 c0 -8 -4 -12 -9 -9 -5 3 -6 10
-3 15 9 13 12 11 12 -6z m597 -3 c2 -4 -5 -9 -17 -9 -17 -2 -19 0 -7 7 18 12
18 12 24 2z m3686 -2 c0 -5 -5 -10 -11 -10 -5 0 -7 5 -4 10 3 6 8 10 11 10 2
0 4 -4 4 -10z m335 1 c-9 -8 -36 -10 -30 -2 2 4 11 8 20 8 8 0 13 -3 10 -6z
m-4035 -36 c0 -7 -30 -13 -34 -7 -3 4 4 9 15 9 10 1 19 0 19 -2z m-555 -25
c-3 -5 -12 -10 -18 -10 -7 0 -6 4 3 10 19 12 23 12 15 0z m4230 -8 c-3 -3 -11
0 -18 7 -9 10 -8 11 6 5 10 -3 15 -9 12 -12z m-3680 -11 c-9 -8 -36 -10 -30
-2 2 4 11 8 20 8 8 0 13 -3 10 -6z m3985 -1 c0 -5 -5 -10 -11 -10 -5 0 -7 5
-4 10 3 6 8 10 11 10 2 0 4 -4 4 -10z m-346 -18 c3 -5 -1 -9 -9 -9 -8 0 -12 4
-9 9 3 4 7 8 9 8 2 0 6 -4 9 -8z m279 -37 c-3 -9 -8 -14 -10 -11 -3 3 -2 9 2
15 9 16 15 13 8 -4z m-3923 -21 c0 -8 -19 -13 -24 -6 -3 5 1 9 9 9 8 0 15 -2
15 -3z m27 -9 c0 -8 -4 -12 -9 -9 -5 3 -6 10 -3 15 9 13 12 11 12 -6z m3879
-40 c-1 -8 -5 -17 -8 -21 -5 -4 -4 16 1 34 3 9 9 -1 7 -13z m-4476 -35 c0 -5
-5 -10 -11 -10 -5 0 -7 5 -4 10 3 6 8 10 11 10 2 0 4 -4 4 -10z m600 6 c0 -3
-4 -8 -10 -11 -5 -3 -10 -1 -10 4 0 6 5 11 10 11 6 0 10 -2 10 -4z m3515 -6
c3 -5 1 -10 -4 -10 -6 0 -11 5 -11 10 0 6 2 10 4 10 3 0 8 -4 11 -10z m325 0
c0 -5 -5 -10 -11 -10 -5 0 -7 5 -4 10 3 6 8 10 11 10 2 0 4 -4 4 -10z m-360
-34 c0 -3 -4 -8 -10 -11 -5 -3 -10 -1 -10 4 0 6 5 11 10 11 6 0 10 -2 10 -4z
m360 0 c0 -3 -4 -8 -10 -11 -5 -3 -10 -1 -10 4 0 6 5 11 10 11 6 0 10 -2 10
-4z m-4440 -46 c0 -5 -5 -10 -11 -10 -5 0 -7 5 -4 10 3 6 8 10 11 10 2 0 4 -4
4 -10z m554 2 c3 -5 -1 -9 -9 -9 -8 0 -12 4 -9 9 3 4 7 8 9 8 2 0 6 -4 9 -8z
m3803 -11 c0 -11 -5 -18 -9 -15 -4 3 -5 11 -1 19 7 21 12 19 10 -4z m-342 -40
c3 -5 2 -12 -3 -15 -5 -3 -9 1 -9 9 0 17 3 19 12 6z m325 -7 c0 -8 -19 -13
-24 -6 -3 5 1 9 9 9 8 0 15 -2 15 -3z m-4340 -24 c0 -5 -5 -10 -11 -10 -5 0
-7 5 -4 10 3 6 8 10 11 10 2 0 4 -4 4 -10z m4020 -14 c0 -2 -7 -7 -16 -10 -8
-3 -12 -2 -9 4 6 10 25 14 25 6z m-70 -42 c0 -8 -19 -13 -24 -6 -3 5 1 9 9 9
8 0 15 -2 15 -3z m-3950 -24 c0 -5 -5 -10 -11 -10 -5 0 -7 5 -4 10 3 6 8 10
11 10 2 0 4 -4 4 -10z m554 2 c3 -5 -1 -9 -9 -9 -8 0 -12 4 -9 9 3 4 7 8 9 8
2 0 6 -4 9 -8z m26 -37 c0 -7 -30 -13 -34 -7 -3 4 4 9 15 9 10 1 19 0 19 -2z
m3340 -1 c0 -8 -19 -13 -24 -6 -3 5 1 9 9 9 8 0 15 -2 15 -3z m320 -4 c0 -5
-2 -10 -4 -10 -3 0 -8 5 -11 10 -3 6 -1 10 4 10 6 0 11 -4 11 -10z m-3665 -39
c-9 -8 -36 -10 -30 -2 2 4 11 8 20 8 8 0 13 -3 10 -6z m-604 -34 c-10 -9 -11
-8 -5 6 3 10 9 15 12 12 3 -3 0 -11 -7 -18z m4249 19 c0 -2 -7 -7 -16 -10 -8
-3 -12 -2 -9 4 6 10 25 14 25 6z m-63 -31 c0 -8 -4 -12 -9 -9 -5 3 -6 10 -3
15 9 13 12 11 12 -6z m-4132 -15 c-3 -5 -12 -10 -18 -10 -7 0 -6 4 3 10 19 12
23 12 15 0z m545 -16 c0 -8 -19 -13 -24 -6 -3 5 1 9 9 9 8 0 15 -2 15 -3z m27
-9 c0 -8 -4 -12 -9 -9 -5 3 -6 10 -3 15 9 13 12 11 12 -6z m3198 5 c3 -5 1
-10 -4 -10 -6 0 -11 5 -11 10 0 6 2 10 4 10 3 0 8 -4 11 -10z m361 -2 c3 -4
-1 -5 -10 -4 -8 1 -18 5 -22 8 -3 4 1 5 10 4 8 -1 18 -5 22 -8z m-356 -32 c0
-3 -4 -8 -10 -11 -5 -3 -10 -1 -10 4 0 6 5 11 10 11 6 0 10 -2 10 -4z m-3200
-40 c0 -3 -4 -8 -10 -11 -5 -3 -10 -1 -10 4 0 6 5 11 10 11 6 0 10 -2 10 -4z
m3514 -4 c2 -4 -5 -9 -17 -9 -17 -2 -19 0 -7 7 18 12 18 12 24 2z m-4114 -38
c0 -8 -19 -13 -24 -6 -3 5 1 9 9 9 8 0 15 -2 15 -3z m600 -4 c0 -5 -5 -10 -11
-10 -5 0 -7 5 -4 10 3 6 8 10 11 10 2 0 4 -4 4 -10z m3140 5 c0 -7 -30 -13
-34 -7 -3 4 4 9 15 9 10 1 19 0 19 -2z m-3743 -40 c0 -8 -4 -12 -9 -9 -5 3 -6
10 -3 15 9 13 12 11 12 -6z m3718 6 c3 -5 2 -12 -3 -15 -5 -3 -9 1 -9 9 0 17
3 19 12 6z m-3120 -50 c3 -5 2 -12 -3 -15 -5 -3 -9 1 -9 9 0 17 3 19 12 6z
m3398 -16 c-7 -21 -12 -19 -10 4 0 11 5 18 9 15 4 -3 5 -11 1 -19z m-3968 -5
c-3 -5 -12 -10 -18 -10 -7 0 -6 4 3 10 19 12 23 12 15 0z m579 -18 c3 -5 -1
-9 -9 -9 -8 0 -12 4 -9 9 3 4 7 8 9 8 2 0 6 -4 9 -8z m-9 -41 c-9 -8 -36 -10
-30 -2 2 4 11 8 20 8 8 0 13 -3 10 -6z m3359 -3 c-3 -4 -11 -5 -19 -1 -21 7
-19 12 4 10 11 0 18 -5 15 -9z m-3360 -36 c2 -4 -5 -9 -17 -9 -17 -2 -19 0 -7
7 18 12 18 12 24 2z m3026 -2 c0 -5 -2 -10 -4 -10 -3 0 -8 5 -11 10 -3 6 -1
10 4 10 6 0 11 -4 11 -10z m297 -5 c0 -8 -4 -12 -9 -9 -5 3 -6 10 -3 15 9 13
12 11 12 -6z m-3337 -30 c0 -7 -30 -13 -34 -7 -3 4 4 9 15 9 10 1 19 0 19 -2z
m3335 -6 c3 -3 -6 -5 -19 -5 -14 1 -28 4 -31 7 -3 3 6 5 19 5 14 -1 28 -4 31
-7z m-382 -14 c-3 -9 -8 -14 -10 -11 -3 3 -2 9 2 15 9 16 15 13 8 -4z m342
-14 c3 -5 2 -12 -3 -15 -5 -3 -9 1 -9 9 0 17 3 19 12 6z m-3300 -10 c-9 -8
-36 -10 -30 -2 2 4 11 8 20 8 8 0 13 -3 10 -6z m-604 -34 c-10 -9 -11 -8 -5 6
3 10 9 15 12 12 3 -3 0 -11 -7 -18z m3864 -7 c3 -5 1 -10 -4 -10 -6 0 -11 5
-11 10 0 6 2 10 4 10 3 0 8 -4 11 -10z m-3810 -20 c-3 -5 -12 -10 -18 -10 -7
0 -6 4 3 10 19 12 23 12 15 0z m545 -16 c0 -8 -19 -13 -24 -6 -3 5 1 9 9 9 8
0 15 -2 15 -3z m27 -9 c0 -8 -4 -12 -9 -9 -5 3 -6 10 -3 15 9 13 12 11 12 -6z
m2863 -35 c0 -5 -5 -10 -11 -10 -5 0 -7 5 -4 10 3 6 8 10 11 10 2 0 4 -4 4
-10z m295 0 c3 -5 1 -10 -4 -10 -6 0 -11 5 -11 10 0 6 2 10 4 10 3 0 8 -4 11
-10z m-330 -20 c-3 -5 -12 -10 -18 -10 -7 0 -6 4 3 10 19 12 23 12 15 0z
m-3425 -20 c0 -5 -5 -10 -11 -10 -5 0 -7 5 -4 10 3 6 8 10 11 10 2 0 4 -4 4
-10z m600 6 c0 -3 -4 -8 -10 -11 -5 -3 -10 -1 -10 4 0 6 5 11 10 11 6 0 10 -2
10 -4z m2795 -45 c3 -5 2 -12 -3 -15 -5 -3 -9 1 -9 9 0 17 3 19 12 6z m325 -1
c0 -5 -5 -10 -11 -10 -5 0 -7 5 -4 10 3 6 8 10 11 10 2 0 4 -4 4 -10z m-3720
-40 c0 -5 -5 -10 -11 -10 -5 0 -7 5 -4 10 3 6 8 10 11 10 2 0 4 -4 4 -10z
m554 2 c3 -5 -1 -9 -9 -9 -8 0 -12 4 -9 9 3 4 7 8 9 8 2 0 6 -4 9 -8z m3097
-35 c-10 -9 -11 -8 -5 6 3 10 9 15 12 12 3 -3 0 -11 -7 -18z m-296 -6 c-9 -8
-36 -10 -30 -2 2 4 11 8 20 8 8 0 13 -3 10 -6z m-3355 -41 c0 -5 -5 -10 -11
-10 -5 0 -7 5 -4 10 3 6 8 10 11 10 2 0 4 -4 4 -10z m3280 -40 c0 -5 -5 -10
-11 -10 -5 0 -7 5 -4 10 3 6 8 10 11 10 2 0 4 -4 4 -10z m-3280 -40 c0 -5 -5
-10 -11 -10 -5 0 -7 5 -4 10 3 6 8 10 11 10 2 0 4 -4 4 -10z m554 2 c3 -5 -1
-9 -9 -9 -8 0 -12 4 -9 9 3 4 7 8 9 8 2 0 6 -4 9 -8z m26 -37 c0 -7 -30 -13
-34 -7 -3 4 4 9 15 9 10 1 19 0 19 -2z m2676 -7 c3 -4 -1 -5 -10 -4 -8 1 -18
5 -22 8 -3 4 1 5 10 4 8 -1 18 -5 22 -8z m304 8 c0 -3 -4 -8 -10 -11 -5 -3
-10 -1 -10 4 0 6 5 11 10 11 6 0 10 -2 10 -4z m-55 -26 c-3 -5 -12 -10 -18
-10 -7 0 -6 4 3 10 19 12 23 12 15 0z m-2930 -19 c-9 -8 -36 -10 -30 -2 2 4
11 8 20 8 8 0 13 -3 10 -6z m2625 -1 c0 -5 -2 -10 -4 -10 -3 0 -8 5 -11 10 -3
6 -1 10 4 10 6 0 11 -4 11 -10z m-44 -36 c1 -9 0 -13 -4 -10 -3 4 -7 14 -8 22
-1 9 0 13 4 10 3 -4 7 -14 8 -22z m-3156 0 c0 -8 -19 -13 -24 -6 -3 5 1 9 9 9
8 0 15 -2 15 -3z m-3 -39 c0 -8 -4 -12 -9 -9 -5 3 -6 10 -3 15 9 13 12 11 12
-6z m573 -1 c0 -8 -19 -13 -24 -6 -3 5 1 9 9 9 8 0 15 -2 15 -3z m27 -9 c0 -8
-4 -12 -9 -9 -5 3 -6 10 -3 15 9 13 12 11 12 -6z m2538 6 c-9 -8 -36 -10 -30
-2 2 4 11 8 20 8 8 0 13 -3 10 -6z m345 -1 c0 -5 -2 -10 -4 -10 -3 0 -8 5 -11
10 -3 6 -1 10 4 10 6 0 11 -4 11 -10z m-3455 -60 c-3 -5 -12 -10 -18 -10 -7 0
-6 4 3 10 19 12 23 12 15 0z m575 -14 c0 -3 -4 -8 -10 -11 -5 -3 -10 -1 -10 4
0 6 5 11 10 11 6 0 10 -2 10 -4z m2475 -5 c3 -5 2 -12 -3 -15 -5 -3 -9 1 -9 9
0 17 3 19 12 6z m329 1 c3 -5 -1 -9 -9 -9 -8 0 -12 4 -9 9 3 4 7 8 9 8 2 0 6
-4 9 -8z m-2804 -42 c0 -5 -5 -10 -11 -10 -5 0 -7 5 -4 10 3 6 8 10 11 10 2 0
4 -4 4 -10z m2396 -25 c-1 -8 -5 -17 -8 -21 -5 -4 -4 16 1 34 3 9 9 -1 7 -13z
m389 5 c-3 -5 -12 -10 -18 -10 -7 0 -6 4 3 10 19 12 23 12 15 0z m-410 -40 c3
-5 1 -10 -4 -10 -6 0 -11 5 -11 10 0 6 2 10 4 10 3 0 8 -4 11 -10z m-2380 -19
c3 -5 2 -12 -3 -15 -5 -3 -9 1 -9 9 0 17 3 19 12 6z m9 -39 c3 -5 -1 -9 -9 -9
-8 0 -12 4 -9 9 3 4 7 8 9 8 2 0 6 -4 9 -8z m2352 -38 c1 -9 0 -13 -4 -10 -3
4 -7 14 -8 22 -1 9 0 13 4 10 3 -4 7 -14 8 -22z m339 17 c3 -5 2 -12 -3 -15
-5 -3 -9 1 -9 9 0 17 3 19 12 6z m-3295 -17 c0 -8 -19 -13 -24 -6 -3 5 1 9 9
9 8 0 15 -2 15 -3z m595 -3 c-9 -8 -36 -10 -30 -2 2 4 11 8 20 8 8 0 13 -3 10
-6z m-598 -36 c0 -8 -4 -12 -9 -9 -5 3 -6 10 -3 15 9 13 12 11 12 -6z m597 -3
c2 -4 -5 -9 -17 -9 -17 -2 -19 0 -7 7 18 12 18 12 24 2z m2323 -7 c0 -8 -4
-12 -9 -9 -5 3 -6 10 -3 15 9 13 12 11 12 -6z m320 -7 c2 -17 0 -19 -7 -8 -5
8 -6 18 -4 22 8 12 10 10 11 -14z m-396 -11 c-6 -8 -7 -18 -3 -22 4 -5 1 -5
-6 -1 -10 6 -10 11 -1 22 6 8 14 14 16 14 3 0 0 -6 -6 -13z m-2261 -12 c0 -7
-30 -13 -34 -7 -3 4 4 9 15 9 10 1 19 0 19 -2z m-555 -25 c-3 -5 -12 -10 -18
-10 -7 0 -6 4 3 10 19 12 23 12 15 0z m550 -19 c-9 -8 -36 -10 -30 -2 2 4 11
8 20 8 8 0 13 -3 10 -6z m2260 -1 c3 -5 1 -10 -4 -10 -6 0 -11 5 -11 10 0 6 2
10 4 10 3 0 8 -4 11 -10z m322 -5 c0 -8 -4 -12 -9 -9 -5 3 -6 10 -3 15 9 13
12 11 12 -6z m-379 -60 c-3 -3 -9 2 -12 12 -6 14 -5 15 5 6 7 -7 10 -15 7 -18z
m-2208 -11 c0 -8 -19 -13 -24 -6 -3 5 1 9 9 9 8 0 15 -2 15 -3z m27 -9 c0 -8
-4 -12 -9 -9 -5 3 -6 10 -3 15 9 13 12 11 12 -6z m2138 -35 c3 -5 1 -10 -4
-10 -6 0 -11 5 -11 10 0 6 2 10 4 10 3 0 8 -4 11 -10z m341 -36 c1 -9 0 -13
-4 -10 -3 4 -7 14 -8 22 -1 9 0 13 4 10 3 -4 7 -14 8 -22z m-41 7 c3 -5 2 -12
-3 -15 -5 -3 -9 1 -9 9 0 17 3 19 12 6z m-2435 -5 c0 -3 -4 -8 -10 -11 -5 -3
-10 -1 -10 4 0 6 5 11 10 11 6 0 10 -2 10 -4z m-629 -39 c-10 -9 -11 -8 -5 6
3 10 9 15 12 12 3 -3 0 -11 -7 -18z m629 -7 c0 -5 -5 -10 -11 -10 -5 0 -7 5
-4 10 3 6 8 10 11 10 2 0 4 -4 4 -10z m2120 6 c0 -3 -4 -8 -10 -11 -5 -3 -10
-1 -10 4 0 6 5 11 10 11 6 0 10 -2 10 -4z m320 -6 c0 -5 -5 -10 -11 -10 -5 0
-7 5 -4 10 3 6 8 10 11 10 2 0 4 -4 4 -10z m-3015 -20 c-3 -5 -12 -10 -18 -10
-7 0 -6 4 3 10 19 12 23 12 15 0z m2965 4 c0 -8 -19 -13 -24 -6 -3 5 1 9 9 9
8 0 15 -2 15 -3z m7 -59 c0 -8 -4 -12 -9 -9 -5 3 -6 10 -3 15 9 13 12 11 12
-6z m-2402 -4 c3 -5 2 -12 -3 -15 -5 -3 -9 1 -9 9 0 17 3 19 12 6z m2369 1 c3
-5 -1 -9 -9 -9 -8 0 -12 4 -9 9 3 4 7 8 9 8 2 0 6 -4 9 -8z m-2360 -40 c3 -5
-1 -9 -9 -9 -8 0 -12 4 -9 9 3 4 7 8 9 8 2 0 6 -4 9 -8z m-604 -38 c0 -8 -19
-13 -24 -6 -3 5 1 9 9 9 8 0 15 -2 15 -3z m595 -3 c-9 -8 -36 -10 -30 -2 2 4
11 8 20 8 8 0 13 -3 10 -6z m2015 3 c0 -8 -19 -13 -24 -6 -3 5 1 9 9 9 8 0 15
-2 15 -3z m306 -6 c3 -4 -1 -5 -10 -4 -8 1 -18 5 -22 8 -3 4 1 5 10 4 8 -1 18
-5 22 -8z m-2919 -33 c0 -8 -4 -12 -9 -9 -5 3 -6 10 -3 15 9 13 12 11 12 -6z
m2520 0 c0 -8 -4 -12 -9 -9 -5 3 -6 10 -3 15 9 13 12 11 12 -6z m-1923 -3 c2
-4 -5 -9 -17 -9 -17 -2 -19 0 -7 7 18 12 18 12 24 2z m2281 -1 c3 -5 2 -12 -3
-15 -5 -3 -9 1 -9 9 0 17 3 19 12 6z m-15 -36 c0 -7 -30 -13 -34 -7 -3 4 4 9
15 9 10 1 19 0 19 -2z m-2835 -25 c-3 -5 -12 -10 -18 -10 -7 0 -6 4 3 10 19
12 23 12 15 0z m575 -14 c0 -3 -4 -8 -10 -11 -5 -3 -10 -1 -10 4 0 6 5 11 10
11 6 0 10 -2 10 -4z m1898 -31 c-3 -3 -9 2 -12 12 -6 14 -5 15 5 6 7 -7 10
-15 7 -18z m-1898 -15 c0 -5 -5 -10 -11 -10 -5 0 -7 5 -4 10 3 6 8 10 11 10 2
0 4 -4 4 -10z m2160 -40 c0 -5 -2 -10 -4 -10 -3 0 -8 5 -11 10 -3 6 -1 10 4
10 6 0 11 -4 11 -10z m-2165 -39 c3 -5 2 -12 -3 -15 -5 -3 -9 1 -9 9 0 17 3
19 12 6z m1825 -1 c0 -5 -5 -10 -11 -10 -5 0 -7 5 -4 10 3 6 8 10 11 10 2 0 4
-4 4 -10z m-1816 -38 c3 -5 -1 -9 -9 -9 -8 0 -12 4 -9 9 3 4 7 8 9 8 2 0 6 -4
9 -8z m-633 -35 c-10 -9 -11 -8 -5 6 3 10 9 15 12 12 3 -3 0 -11 -7 -18z m624
-6 c-9 -8 -36 -10 -30 -2 2 4 11 8 20 8 8 0 13 -3 10 -6z m-570 -21 c-3 -5
-12 -10 -18 -10 -7 0 -6 4 3 10 19 12 23 12 15 0z m569 -18 c2 -4 -5 -9 -17
-9 -17 -2 -19 0 -7 7 18 12 18 12 24 2z m2046 -2 c0 -5 -5 -10 -11 -10 -5 0
-7 5 -4 10 3 6 8 10 11 10 2 0 4 -4 4 -10z m-44 -76 c1 -9 0 -13 -4 -10 -3 4
-7 14 -8 22 -1 9 0 13 4 10 3 -4 7 -14 8 -22z m-1996 2 c0 -3 -4 -8 -10 -11
-5 -3 -10 -1 -10 4 0 6 5 11 10 11 6 0 10 -2 10 -4z m-629 -39 c-10 -9 -11 -8
-5 6 3 10 9 15 12 12 3 -3 0 -11 -7 -18z m629 -7 c0 -5 -5 -10 -11 -10 -5 0
-7 5 -4 10 3 6 8 10 11 10 2 0 4 -4 4 -10z m1640 0 c0 -5 -2 -10 -4 -10 -3 0
-8 5 -11 10 -3 6 -1 10 4 10 6 0 11 -4 11 -10z m-2215 -20 c-3 -5 -12 -10 -18
-10 -7 0 -6 4 3 10 19 12 23 12 15 0z m2546 -13 c-10 -9 -11 -8 -5 6 3 10 9
15 12 12 3 -3 0 -11 -7 -18z m-1976 -46 c3 -5 2 -12 -3 -15 -5 -3 -9 1 -9 9 0
17 3 19 12 6z m1919 -3 c-3 -4 -11 -5 -19 -1 -21 7 -19 12 4 10 11 0 18 -5 15
-9z m-1910 -36 c3 -5 -1 -9 -9 -9 -8 0 -12 4 -9 9 3 4 7 8 9 8 2 0 6 -4 9 -8z
m1576 3 c0 -7 -30 -13 -34 -7 -3 4 4 9 15 9 10 1 19 0 19 -2z m336 -7 c3 -4
-1 -5 -10 -4 -8 1 -18 5 -22 8 -3 4 1 5 10 4 8 -1 18 -5 22 -8z m-2516 -34 c0
-8 -19 -13 -24 -6 -3 5 1 9 9 9 8 0 15 -2 15 -3z m595 -3 c-9 -8 -36 -10 -30
-2 2 4 11 8 20 8 8 0 13 -3 10 -6z m1818 -16 c-3 -9 -8 -14 -10 -11 -3 3 -2 9
2 15 9 16 15 13 8 -4z m-2416 -20 c0 -8 -4 -12 -9 -9 -5 3 -6 10 -3 15 9 13
12 11 12 -6z m597 -3 c2 -4 -5 -9 -17 -9 -17 -2 -19 0 -7 7 18 12 18 12 24 2z
m1510 0 c3 -5 -1 -9 -9 -9 -8 0 -12 4 -9 9 3 4 7 8 9 8 2 0 6 -4 9 -8z m-30
-44 c-3 -4 -11 -5 -19 -1 -21 7 -19 12 4 10 11 0 18 -5 15 -9z m-2049 -18 c-3
-5 -12 -10 -18 -10 -7 0 -6 4 3 10 19 12 23 12 15 0z m575 -14 c0 -3 -4 -8
-10 -11 -5 -3 -10 -1 -10 4 0 6 5 11 10 11 6 0 10 -2 10 -4z m1371 -39 c-10
-9 -11 -8 -5 6 3 10 9 15 12 12 3 -3 0 -11 -7 -18z m-1371 -7 c0 -5 -5 -10
-11 -10 -5 0 -7 5 -4 10 3 6 8 10 11 10 2 0 4 -4 4 -10z m1754 -2 c-3 -4 -11
-5 -19 -1 -21 7 -19 12 4 10 11 0 18 -5 15 -9z m-1759 -77 c3 -5 2 -12 -3 -15
-5 -3 -9 1 -9 9 0 17 3 19 12 6z m9 -39 c3 -5 -1 -9 -9 -9 -8 0 -12 4 -9 9 3
4 7 8 9 8 2 0 6 -4 9 -8z m1313 1 c-4 -3 -1 -13 6 -22 11 -14 10 -14 -5 -2
-16 12 -16 31 -1 31 4 0 3 -3 0 -7z m-1946 -36 c-10 -9 -11 -8 -5 6 3 10 9 15
12 12 3 -3 0 -11 -7 -18z m624 -6 c-9 -8 -36 -10 -30 -2 2 4 11 8 20 8 8 0 13
-3 10 -6z m1280 0 c3 -5 2 -12 -3 -15 -5 -3 -9 1 -9 9 0 17 3 19 12 6z m325 5
c0 -3 -4 -8 -10 -11 -5 -3 -10 -1 -10 4 0 6 5 11 10 11 6 0 10 -2 10 -4z
m-2175 -26 c-3 -5 -12 -10 -18 -10 -7 0 -6 4 3 10 19 12 23 12 15 0z m569 -18
c2 -4 -5 -9 -17 -9 -17 -2 -19 0 -7 7 18 12 18 12 24 2z m1290 0 c3 -5 -1 -9
-9 -9 -8 0 -12 4 -9 9 3 4 7 8 9 8 2 0 6 -4 9 -8z m-88 -78 c1 -9 0 -13 -4
-10 -3 4 -7 14 -8 22 -1 9 0 13 4 10 3 -4 7 -14 8 -22z m-1196 2 c0 -3 -4 -8
-10 -11 -5 -3 -10 -1 -10 4 0 6 5 11 10 11 6 0 10 -2 10 -4z m-600 -42 c0 -8
-19 -13 -24 -6 -3 5 1 9 9 9 8 0 15 -2 15 -3z m-3 -39 c0 -8 -4 -12 -9 -9 -5
3 -6 10 -3 15 9 13 12 11 12 -6z m557 -3 c3 -5 -1 -9 -9 -9 -8 0 -12 4 -9 9 3
4 7 8 9 8 2 0 6 -4 9 -8z m1201 -2 c3 -5 1 -10 -4 -10 -6 0 -11 5 -11 10 0 6
2 10 4 10 3 0 8 -4 11 -10z m321 -16 c1 -9 0 -13 -4 -10 -3 4 -7 14 -8 22 -1
9 0 13 4 10 3 -4 7 -14 8 -22z m-326 -20 c0 -8 -19 -13 -24 -6 -3 5 1 9 9 9 8
0 15 -2 15 -3z m-1725 -24 c-3 -5 -12 -10 -18 -10 -7 0 -6 4 3 10 19 12 23 12
15 0z m1655 -20 c0 -5 -2 -10 -4 -10 -3 0 -8 5 -11 10 -3 6 -1 10 4 10 6 0 11
-4 11 -10z m355 0 c3 -5 1 -10 -4 -10 -6 0 -11 5 -11 10 0 6 2 10 4 10 3 0 8
-4 11 -10z m-401 -38 c2 -4 -5 -9 -17 -9 -17 -2 -19 0 -7 7 18 12 18 12 24 2z
m-1080 -40 c3 -5 -1 -9 -9 -9 -8 0 -12 4 -9 9 3 4 7 8 9 8 2 0 6 -4 9 -8z m26
-37 c0 -7 -30 -13 -34 -7 -3 4 4 9 15 9 10 1 19 0 19 -2z m1340 -5 c0 -5 -5
-10 -11 -10 -5 0 -7 5 -4 10 3 6 8 10 11 10 2 0 4 -4 4 -10z m-1345 -39 c-9
-8 -36 -10 -30 -2 2 4 11 8 20 8 8 0 13 -3 10 -6z m-575 -37 c0 -8 -19 -13
-24 -6 -3 5 1 9 9 9 8 0 15 -2 15 -3z m1515 -4 c3 -5 1 -10 -4 -10 -6 0 -11 5
-11 10 0 6 2 10 4 10 3 0 8 -4 11 -10z m365 0 c0 -5 -2 -10 -4 -10 -3 0 -8 5
-11 10 -3 6 -1 10 4 10 6 0 11 -4 11 -10z m-44 -36 c1 -9 0 -13 -4 -10 -3 4
-7 14 -8 22 -1 9 0 13 4 10 3 -4 7 -14 8 -22z m-1839 1 c0 -8 -4 -12 -9 -9 -5
3 -6 10 -3 15 9 13 12 11 12 -6z m573 -1 c0 -8 -19 -13 -24 -6 -3 5 1 9 9 9 8
0 15 -2 15 -3z m27 -9 c0 -8 -4 -12 -9 -9 -5 3 -6 10 -3 15 9 13 12 11 12 -6z
m1203 -35 c0 -5 -2 -10 -4 -10 -3 0 -8 5 -11 10 -3 6 -1 10 4 10 6 0 11 -4 11
-10z m-1775 -20 c-3 -5 -12 -10 -18 -10 -7 0 -6 4 3 10 19 12 23 12 15 0z
m575 -14 c0 -3 -4 -8 -10 -11 -5 -3 -10 -1 -10 4 0 6 5 11 10 11 6 0 10 -2 10
-4z m880 -6 c0 -5 -5 -10 -11 -10 -5 0 -7 5 -4 10 3 6 8 10 11 10 2 0 4 -4 4
-10z m-55 -20 c-3 -5 -12 -10 -18 -10 -7 0 -6 4 3 10 19 12 23 12 15 0z m-825
-20 c0 -5 -5 -10 -11 -10 -5 0 -7 5 -4 10 3 6 8 10 11 10 2 0 4 -4 4 -10z m-5
-79 c3 -5 2 -12 -3 -15 -5 -3 -9 1 -9 9 0 17 3 19 12 6z m720 -30 c3 -5 2 -12
-3 -15 -5 -3 -9 1 -9 9 0 17 3 19 12 6z m-1315 -11 c0 -5 -5 -10 -11 -10 -5 0
-7 5 -4 10 3 6 8 10 11 10 2 0 4 -4 4 -10z m604 2 c3 -5 -1 -9 -9 -9 -8 0 -12
4 -9 9 3 4 7 8 9 8 2 0 6 -4 9 -8z m1086 2 c0 -8 -19 -13 -24 -6 -3 5 1 9 9 9
8 0 15 -2 15 -3z m-1095 -43 c-9 -8 -36 -10 -30 -2 2 4 11 8 20 8 8 0 13 -3
10 -6z m-595 -41 c0 -5 -5 -10 -11 -10 -5 0 -7 5 -4 10 3 6 8 10 11 10 2 0 4
-4 4 -10z m594 2 c2 -4 -5 -9 -17 -9 -17 -2 -19 0 -7 7 18 12 18 12 24 2z
m1003 -7 c0 -8 -4 -12 -9 -9 -5 3 -6 10 -3 15 9 13 12 11 12 -6z m-1017 -30
c0 -7 -30 -13 -34 -7 -3 4 4 9 15 9 10 1 19 0 19 -2z m977 -34 c0 -11 -5 -18
-9 -15 -4 3 -5 11 -1 19 7 21 12 19 10 -4z m-1557 -11 c0 -5 -5 -10 -11 -10
-5 0 -7 5 -4 10 3 6 8 10 11 10 2 0 4 -4 4 -10z m575 1 c-9 -8 -36 -10 -30 -2
2 4 11 8 20 8 8 0 13 -3 10 -6z m620 -1 c3 -5 1 -10 -4 -10 -6 0 -11 5 -11 10
0 6 2 10 4 10 3 0 8 -4 11 -10z m325 -40 c0 -5 -5 -10 -11 -10 -5 0 -7 5 -4
10 3 6 8 10 11 10 2 0 4 -4 4 -10z m-1520 -40 c0 -5 -5 -10 -11 -10 -5 0 -7 5
-4 10 3 6 8 10 11 10 2 0 4 -4 4 -10z m570 4 c0 -8 -19 -13 -24 -6 -3 5 1 9 9
9 8 0 15 -2 15 -3z m27 -9 c0 -8 -4 -12 -9 -9 -5 3 -6 10 -3 15 9 13 12 11 12
-6z m548 -55 c-3 -5 -12 -10 -18 -10 -7 0 -6 4 3 10 19 12 23 12 15 0z m-545
-14 c0 -3 -4 -8 -10 -11 -5 -3 -10 -1 -10 4 0 6 5 11 10 11 6 0 10 -2 10 -4z
m-629 -39 c-10 -9 -11 -8 -5 6 3 10 9 15 12 12 3 -3 0 -11 -7 -18z m54 -27
c-3 -5 -12 -10 -18 -10 -7 0 -6 4 3 10 19 12 23 12 15 0z m1355 6 c0 -3 -4 -8
-10 -11 -5 -3 -10 -1 -10 4 0 6 5 11 10 11 6 0 10 -2 10 -4z m-826 -24 c3 -5
-1 -9 -9 -9 -8 0 -12 4 -9 9 3 4 7 8 9 8 2 0 6 -4 9 -8z m506 -2 c0 -5 -5 -10
-11 -10 -5 0 -7 5 -4 10 3 6 8 10 11 10 2 0 4 -4 4 -10z m-40 -14 c0 -3 -4 -8
-10 -11 -5 -3 -10 -1 -10 4 0 6 5 11 10 11 6 0 10 -2 10 -4z m-46 -44 c3 -5
-1 -9 -9 -9 -8 0 -12 4 -9 9 3 4 7 8 9 8 2 0 6 -4 9 -8z m20 -40 c3 -5 -1 -9
-9 -9 -8 0 -12 4 -9 9 3 4 7 8 9 8 2 0 6 -4 9 -8z m-994 -18 c0 -8 -19 -13
-24 -6 -3 5 1 9 9 9 8 0 15 -2 15 -3z m-3 -39 c0 -8 -4 -12 -9 -9 -5 3 -6 10
-3 15 9 13 12 11 12 -6z m557 -3 c3 -5 -1 -9 -9 -9 -8 0 -12 4 -9 9 3 4 7 8 9
8 2 0 6 -4 9 -8z m361 -2 c3 -5 1 -10 -4 -10 -6 0 -11 5 -11 10 0 6 2 10 4 10
3 0 8 -4 11 -10z m-890 -60 c-3 -5 -12 -10 -18 -10 -7 0 -6 4 3 10 19 12 23
12 15 0z m575 -14 c0 -3 -4 -8 -10 -11 -5 -3 -10 -1 -10 4 0 6 5 11 10 11 6 0
10 -2 10 -4z m640 -6 c0 -5 -5 -10 -11 -10 -5 0 -7 5 -4 10 3 6 8 10 11 10 2
0 4 -4 4 -10z m-370 -40 c-8 -5 -19 -10 -25 -10 -5 0 -3 5 5 10 8 5 20 10 25
10 6 0 3 -5 -5 -10z m290 6 c0 -3 -4 -8 -10 -11 -5 -3 -10 -1 -10 4 0 6 5 11
10 11 6 0 10 -2 10 -4z m-606 -44 c3 -5 -1 -9 -9 -9 -8 0 -12 4 -9 9 3 4 7 8
9 8 2 0 6 -4 9 -8z m286 -2 c0 -5 -2 -10 -4 -10 -3 0 -8 5 -11 10 -3 6 -1 10
4 10 6 0 11 -4 11 -10z m-83 -35 c0 -8 -4 -12 -9 -9 -5 3 -6 10 -3 15 9 13 12
11 12 -6z m-786 -78 c-10 -9 -11 -8 -5 6 3 10 9 15 12 12 3 -3 0 -11 -7 -18z
m613 15 c3 -5 -1 -9 -9 -9 -8 0 -15 4 -15 9 0 4 4 8 9 8 6 0 12 -4 15 -8z
m169 -7 c4 -8 3 -16 -1 -19 -4 -3 -9 4 -9 15 -2 23 3 25 10 4z m281 -13 c3 -5
-1 -9 -9 -9 -8 0 -12 4 -9 9 3 4 7 8 9 8 2 0 6 -4 9 -8z m50 0 c3 -5 -1 -9 -9
-9 -8 0 -12 4 -9 9 3 4 7 8 9 8 2 0 6 -4 9 -8z m-1059 -22 c-3 -5 -12 -10 -18
-10 -7 0 -6 4 3 10 19 12 23 12 15 0z m639 -38 c3 -5 -1 -9 -9 -9 -8 0 -12 4
-9 9 3 4 7 8 9 8 2 0 6 -4 9 -8z m-664 -62 c0 -5 -5 -10 -11 -10 -5 0 -7 5 -4
10 3 6 8 10 11 10 2 0 4 -4 4 -10z m576 -2 c3 -4 -1 -5 -10 -4 -8 1 -18 5 -22
8 -3 4 1 5 10 4 8 -1 18 -5 22 -8z m424 2 c0 -5 -2 -10 -4 -10 -3 0 -8 5 -11
10 -3 6 -1 10 4 10 6 0 11 -4 11 -10z m-1000 -80 c0 -5 -5 -10 -11 -10 -5 0
-7 5 -4 10 3 6 8 10 11 10 2 0 4 -4 4 -10z m595 1 c3 -5 2 -12 -3 -15 -5 -3
-9 1 -9 9 0 17 3 19 12 6z m322 -13 c2 -17 0 -19 -7 -8 -5 8 -6 18 -4 22 8 12
10 10 11 -14z m-917 -68 c0 -5 -5 -10 -11 -10 -5 0 -7 5 -4 10 3 6 8 10 11 10
2 0 4 -4 4 -10z m840 -40 c0 -5 -5 -10 -11 -10 -5 0 -7 5 -4 10 3 6 8 10 11
10 2 0 4 -4 4 -10z m-840 -40 c0 -5 -5 -10 -11 -10 -5 0 -7 5 -4 10 3 6 8 10
11 10 2 0 4 -4 4 -10z m800 0 c0 -5 -2 -10 -4 -10 -3 0 -8 5 -11 10 -3 6 -1
10 4 10 6 0 11 -4 11 -10z m-800 -116 c0 -8 -19 -13 -24 -6 -3 5 1 9 9 9 8 0
15 -2 15 -3z m-3 -39 c0 -8 -4 -12 -9 -9 -5 3 -6 10 -3 15 9 13 12 11 12 -6z
m683 -5 c0 -5 -5 -10 -11 -10 -5 0 -7 5 -4 10 3 6 8 10 11 10 2 0 4 -4 4 -10z
m-40 -36 c0 -8 -19 -13 -24 -6 -3 5 1 9 9 9 8 0 15 -2 15 -3z m-3 -39 c0 -8
-4 -12 -9 -9 -5 3 -6 10 -3 15 9 13 12 11 12 -6z m-297 -10 c0 -2 -9 -3 -19
-2 -11 0 -18 5 -15 9 4 6 34 0 34 -7z m135 5 c3 -5 1 -10 -4 -10 -6 0 -11 5
-11 10 0 6 2 10 4 10 3 0 8 -4 11 -10z m-455 -14 c0 -3 -4 -8 -10 -11 -5 -3
-10 -1 -10 4 0 6 5 11 10 11 6 0 10 -2 10 -4z m130 -2 c0 -8 -19 -13 -24 -6
-3 5 1 9 9 9 8 0 15 -2 15 -3z m304 -10 c3 -8 2 -12 -4 -9 -6 3 -10 10 -10 16
0 14 7 11 14 -7z m-374 -10 c0 -8 -19 -13 -24 -6 -3 5 1 9 9 9 8 0 15 -2 15
-3z m435 -4 c3 -5 1 -10 -4 -10 -6 0 -11 5 -11 10 0 6 2 10 4 10 3 0 8 -4 11
-10z"/>
</g>
</svg>
